<?xml version="1.0" encoding="UTF-8"?>
<svg version="1.1" xmlns="http://www.w3.org/2000/svg" width="3518" height="4096">
<path d="M0 0 C0.7396701 0.00093658 1.47934021 0.00187317 2.24142456 0.00283813 C59.55356887 0.15897687 112.11322278 17.51298186 159.625 49.1875 C159.625 49.8475 159.625 50.5075 159.625 51.1875 C160.34042969 51.4453125 161.05585937 51.703125 161.79296875 51.96875 C164.79660111 53.26134765 167.26005372 54.8152709 169.9375 56.6875 C171.26201172 57.60015625 171.26201172 57.60015625 172.61328125 58.53125 C173.27714844 59.0778125 173.94101563 59.624375 174.625 60.1875 C174.625 60.8475 174.625 61.5075 174.625 62.1875 C175.20765625 62.455625 175.7903125 62.72375 176.390625 63 C178.65286601 64.20230991 180.43076318 65.52575913 182.375 67.1875 C182.98859375 67.703125 183.6021875 68.21875 184.234375 68.75 C185.625 70.1875 185.625 70.1875 185.625 72.1875 C186.20636719 72.45304687 186.78773437 72.71859375 187.38671875 72.9921875 C193.57384123 76.29630526 198.40359693 81.83434959 202.8828125 87.12890625 C205.30161155 89.98699392 207.82547395 92.74934159 210.33984375 95.5234375 C211.625 97.1875 211.625 97.1875 211.625 99.1875 C212.285 99.1875 212.945 99.1875 213.625 99.1875 C225.46741657 113.79405041 235.39022897 131.1772824 242.84326172 148.39013672 C243.53016857 149.96946471 244.2489418 151.53485258 244.97265625 153.09765625 C257.17315025 180.3624258 262.0835073 211.04571508 261.9375 240.75 C261.93567719 241.52820099 261.93385437 242.30640198 261.93197632 243.10818481 C261.80162609 276.38910253 254.82927682 308.02225417 240.625 338.1875 C240.30499023 338.87763184 239.98498047 339.56776367 239.65527344 340.27880859 C232.20147436 356.21409 222.57787263 370.46472735 211.625 384.1875 C210.47064453 385.68410156 210.47064453 385.68410156 209.29296875 387.2109375 C208.57753906 388.13132812 207.86210938 389.05171875 207.125 390 C206.4959375 390.81082031 205.866875 391.62164063 205.21875 392.45703125 C204.42984375 393.31361328 204.42984375 393.31361328 203.625 394.1875 C202.965 394.1875 202.305 394.1875 201.625 394.1875 C201.295 395.1775 200.965 396.1675 200.625 397.1875 C199.965 397.1875 199.305 397.1875 198.625 397.1875 C198.356875 397.826875 198.08875 398.46625 197.8125 399.125 C196.625 401.1875 196.625 401.1875 193.625 402.1875 C193.295 403.1775 192.965 404.1675 192.625 405.1875 C191.965 405.1875 191.305 405.1875 190.625 405.1875 C190.356875 405.826875 190.08875 406.46625 189.8125 407.125 C188.625 409.1875 188.625 409.1875 185.625 410.1875 C185.295 411.1775 184.965 412.1675 184.625 413.1875 C183.965 413.1875 183.305 413.1875 182.625 413.1875 C182.625 413.8475 182.625 414.5075 182.625 415.1875 C181.19140625 416.59765625 181.19140625 416.59765625 179.1875 418.25 C175.03538212 421.75820655 171.26692767 425.54200405 167.5078125 429.46484375 C165.625 431.1875 165.625 431.1875 163.625 431.1875 C163.625 431.8475 163.625 432.5075 163.625 433.1875 C162.26953125 434.51953125 162.26953125 434.51953125 160.4375 436 C157.30041883 438.54930561 154.45592123 441.30872473 151.625 444.1875 C148.52445552 447.31610705 145.41863487 450.43944455 142.3125 453.5625 C141.49587891 454.3875 140.67925781 455.2125 139.83789062 456.0625 C135.50233119 460.41533258 131.09691224 464.5913604 126.43579102 468.59277344 C123.21891036 471.42581435 120.28290893 474.52298452 117.3203125 477.61914062 C116.12404535 478.84429491 114.87827689 480.02072875 113.625 481.1875 C112.965 481.1875 112.305 481.1875 111.625 481.1875 C111.625 481.8475 111.625 482.5075 111.625 483.1875 C110.25 484.8125 110.25 484.8125 108.625 486.1875 C107.965 486.1875 107.305 486.1875 106.625 486.1875 C106.295 487.1775 105.965 488.1675 105.625 489.1875 C104.965 489.1875 104.305 489.1875 103.625 489.1875 C103.625 489.8475 103.625 490.5075 103.625 491.1875 C102.296875 492.4921875 102.296875 492.4921875 100.375 494.0625 C96.00836301 497.76093276 92.00636434 501.74269383 88.01464844 505.83544922 C84.71425496 509.19213704 81.26654913 512.20387782 77.625 515.1875 C75.39090688 517.36574079 73.20562678 519.57949876 71.05078125 521.8359375 C69.61067896 523.32136989 68.12080536 524.75817488 66.625 526.1875 C65.965 526.1875 65.305 526.1875 64.625 526.1875 C64.356875 526.826875 64.08875 527.46625 63.8125 528.125 C62.625 530.1875 62.625 530.1875 59.625 531.1875 C59.295 532.1775 58.965 533.1675 58.625 534.1875 C57.965 534.1875 57.305 534.1875 56.625 534.1875 C56.356875 534.826875 56.08875 535.46625 55.8125 536.125 C54.625 538.1875 54.625 538.1875 51.625 539.1875 C51.295 540.1775 50.965 541.1675 50.625 542.1875 C49.05859375 543.73046875 49.05859375 543.73046875 47.0625 545.375 C43.23114476 548.60576442 39.74428602 552.05629734 36.2890625 555.68359375 C34.625 557.1875 34.625 557.1875 32.625 557.1875 C32.625 557.8475 32.625 558.5075 32.625 559.1875 C30.97497172 560.54136936 29.3075613 561.87428142 27.625 563.1875 C27.295 563.8475 26.965 564.5075 26.625 565.1875 C25.965 565.1875 25.305 565.1875 24.625 565.1875 C24.625 565.8475 24.625 566.5075 24.625 567.1875 C23.40234375 568.38671875 23.40234375 568.38671875 21.5625 569.875 C17.1767613 573.58841512 13.16024054 577.603432 9.125 581.6875 C4.70391705 586.15295069 0.28401699 590.51419187 -4.53125 594.55859375 C-7.69153124 597.35062188 -10.57594089 600.42158291 -13.4921875 603.46484375 C-15.375 605.1875 -15.375 605.1875 -17.375 605.1875 C-17.375 605.8475 -17.375 606.5075 -17.375 607.1875 C-18.035 607.1875 -18.695 607.1875 -19.375 607.1875 C-19.705 608.1775 -20.035 609.1675 -20.375 610.1875 C-21.035 610.1875 -21.695 610.1875 -22.375 610.1875 C-22.705 611.1775 -23.035 612.1675 -23.375 613.1875 C-24.035 613.1875 -24.695 613.1875 -25.375 613.1875 C-25.375 613.8475 -25.375 614.5075 -25.375 615.1875 C-26.035 615.1875 -26.695 615.1875 -27.375 615.1875 C-27.705 616.1775 -28.035 617.1675 -28.375 618.1875 C-29.035 618.1875 -29.695 618.1875 -30.375 618.1875 C-30.375 618.8475 -30.375 619.5075 -30.375 620.1875 C-31.80859375 621.59765625 -31.80859375 621.59765625 -33.8125 623.25 C-37.96461788 626.75820655 -41.73307233 630.54200405 -45.4921875 634.46484375 C-47.375 636.1875 -47.375 636.1875 -49.375 636.1875 C-49.375 636.8475 -49.375 637.5075 -49.375 638.1875 C-50.73046875 639.51953125 -50.73046875 639.51953125 -52.5625 641 C-56.26063568 644.06692778 -59.62663032 647.35649593 -62.9453125 650.83203125 C-64.38675127 652.31873259 -65.87786335 653.75690276 -67.375 655.1875 C-68.035 655.1875 -68.695 655.1875 -69.375 655.1875 C-69.6225 655.765 -69.87 656.3425 -70.125 656.9375 C-71.55799988 659.51689979 -73.15924676 661.24871592 -75.375 663.1875 C-76.035 663.1875 -76.695 663.1875 -77.375 663.1875 C-77.60832031 663.75855469 -77.84164062 664.32960938 -78.08203125 664.91796875 C-79.68458312 667.73090722 -81.61262181 669.3877773 -84.0625 671.5 C-88.91299334 675.75469575 -93.56178878 680.14277763 -97.94140625 684.8828125 C-99.375 686.1875 -99.375 686.1875 -101.375 686.1875 C-101.705 687.1775 -102.035 688.1675 -102.375 689.1875 C-103.035 689.1875 -103.695 689.1875 -104.375 689.1875 C-104.375 689.8475 -104.375 690.5075 -104.375 691.1875 C-105.75 692.8125 -105.75 692.8125 -107.375 694.1875 C-108.035 694.1875 -108.695 694.1875 -109.375 694.1875 C-109.375 694.8475 -109.375 695.5075 -109.375 696.1875 C-110.703125 697.4921875 -110.703125 697.4921875 -112.625 699.0625 C-116.40531204 702.26638148 -119.90169795 705.66061955 -123.375 709.1875 C-127.25983165 713.12191238 -131.20381284 716.87728593 -135.42578125 720.453125 C-138.61410026 723.29002608 -141.54066878 726.38477456 -144.4921875 729.46484375 C-146.375 731.1875 -146.375 731.1875 -148.375 731.1875 C-148.705 732.1775 -149.035 733.1675 -149.375 734.1875 C-150.035 734.1875 -150.695 734.1875 -151.375 734.1875 C-151.643125 734.826875 -151.91125 735.46625 -152.1875 736.125 C-153.375 738.1875 -153.375 738.1875 -156.375 739.1875 C-156.705 740.1775 -157.035 741.1675 -157.375 742.1875 C-158.035 742.1875 -158.695 742.1875 -159.375 742.1875 C-159.375 742.8475 -159.375 743.5075 -159.375 744.1875 C-160.035 744.1875 -160.695 744.1875 -161.375 744.1875 C-161.375 744.8475 -161.375 745.5075 -161.375 746.1875 C-162.80859375 747.59765625 -162.80859375 747.59765625 -164.8125 749.25 C-170.19622681 753.81946208 -175.21119684 758.77451903 -180.01171875 763.953125 C-181.375 765.1875 -181.375 765.1875 -183.375 765.1875 C-183.375 765.8475 -183.375 766.5075 -183.375 767.1875 C-184.94921875 768.73828125 -184.94921875 768.73828125 -187.0625 770.5 C-189.57302294 772.62394684 -191.98323421 774.74251344 -194.25 777.125 C-196.375 779.1875 -196.375 779.1875 -198.375 779.1875 C-198.61992188 779.75855469 -198.86484375 780.32960938 -199.1171875 780.91796875 C-202.73289544 787.44196351 -209.5656224 792.42037959 -215.1875 797.21484375 C-218.50395534 800.2055758 -221.60516466 803.40901261 -224.69482422 806.63232422 C-225.88540795 807.85368785 -227.12661387 809.02528194 -228.375 810.1875 C-229.035 810.1875 -229.695 810.1875 -230.375 810.1875 C-230.705 811.1775 -231.035 812.1675 -231.375 813.1875 C-232.035 813.1875 -232.695 813.1875 -233.375 813.1875 C-233.375 813.8475 -233.375 814.5075 -233.375 815.1875 C-234.035 815.1875 -234.695 815.1875 -235.375 815.1875 C-235.705 816.1775 -236.035 817.1675 -236.375 818.1875 C-237.035 818.1875 -237.695 818.1875 -238.375 818.1875 C-238.375 818.8475 -238.375 819.5075 -238.375 820.1875 C-239.75 821.8125 -239.75 821.8125 -241.375 823.1875 C-242.035 823.1875 -242.695 823.1875 -243.375 823.1875 C-243.375 823.8475 -243.375 824.5075 -243.375 825.1875 C-244.80859375 826.59765625 -244.80859375 826.59765625 -246.8125 828.25 C-249.98257217 830.93924994 -252.96081525 833.72263377 -255.875 836.6875 C-258.54254086 839.39133393 -261.22959492 841.98005535 -264.125 844.4375 C-270.21712777 849.65047925 -275.74830502 855.48360951 -281.375 861.1875 C-280.1915959 863.73555026 -279.26987553 865.29262447 -277.25 867.3125 C-275.375 869.1875 -275.375 869.1875 -275.375 871.1875 C-274.715 871.1875 -274.055 871.1875 -273.375 871.1875 C-271.89453125 872.69140625 -271.89453125 872.69140625 -270.1875 874.75 C-267.18822507 878.29746174 -264.03504868 881.55272872 -260.66015625 884.7421875 C-259.375 886.1875 -259.375 886.1875 -259.375 888.1875 C-258.385 888.5175 -257.395 888.8475 -256.375 889.1875 C-256.375 889.8475 -256.375 890.5075 -256.375 891.1875 C-255.735625 891.455625 -255.09625 891.72375 -254.4375 892 C-252.375 893.1875 -252.375 893.1875 -251.375 896.1875 C-250.385 896.5175 -249.395 896.8475 -248.375 897.1875 C-248.375 897.8475 -248.375 898.5075 -248.375 899.1875 C-247.715 899.1875 -247.055 899.1875 -246.375 899.1875 C-246.375 899.8475 -246.375 900.5075 -246.375 901.1875 C-245.385 901.5175 -244.395 901.8475 -243.375 902.1875 C-241.8671875 903.71875 -241.8671875 903.71875 -240.25 905.6875 C-236.76540284 909.82126194 -232.99937174 913.5658149 -229.09765625 917.3046875 C-227.375 919.1875 -227.375 919.1875 -227.375 921.1875 C-226.715 921.1875 -226.055 921.1875 -225.375 921.1875 C-225.375 921.8475 -225.375 922.5075 -225.375 923.1875 C-224.715 923.1875 -224.055 923.1875 -223.375 923.1875 C-222.04296875 924.54296875 -222.04296875 924.54296875 -220.5625 926.375 C-218.0080128 929.51845744 -215.26213184 932.34478557 -212.375 935.1875 C-209.74678254 937.78843368 -207.12317687 940.3939841 -204.5 943 C-203.81808594 943.67353516 -203.13617187 944.34707031 -202.43359375 945.04101562 C-198.43354471 949.02201681 -194.64274801 953.11102501 -190.95996094 957.38647461 C-188.18402741 960.54082791 -185.1290189 963.39984249 -182.09765625 966.3046875 C-180.375 968.1875 -180.375 968.1875 -180.375 970.1875 C-179.385 970.5175 -178.395 970.8475 -177.375 971.1875 C-177.375 971.8475 -177.375 972.5075 -177.375 973.1875 C-176.715 973.1875 -176.055 973.1875 -175.375 973.1875 C-175.375 973.8475 -175.375 974.5075 -175.375 975.1875 C-174.385 975.5175 -173.395 975.8475 -172.375 976.1875 C-172.375 976.8475 -172.375 977.5075 -172.375 978.1875 C-171.385 978.5175 -170.395 978.8475 -169.375 979.1875 C-169.375 979.8475 -169.375 980.5075 -169.375 981.1875 C-168.715 981.1875 -168.055 981.1875 -167.375 981.1875 C-167.375 981.8475 -167.375 982.5075 -167.375 983.1875 C-166.385 983.5175 -165.395 983.8475 -164.375 984.1875 C-162.83203125 985.75390625 -162.83203125 985.75390625 -161.1875 987.75 C-158.69173788 990.69762642 -156.13280903 993.48324066 -153.375 996.1875 C-150.89840379 998.62650082 -148.55469143 1001.09492422 -146.3125 1003.75 C-141.97572678 1008.82992919 -137.14391868 1013.43723901 -132.35327148 1018.08422852 C-131.39142944 1019.02866821 -131.39142944 1019.02866821 -130.41015625 1019.9921875 C-129.8262915 1020.55921387 -129.24242676 1021.12624023 -128.64086914 1021.71044922 C-127.375 1023.1875 -127.375 1023.1875 -127.375 1025.1875 C-126.7975 1025.435 -126.22 1025.6825 -125.625 1025.9375 C-123.04560021 1027.37049988 -121.31378408 1028.97174676 -119.375 1031.1875 C-119.375 1031.8475 -119.375 1032.5075 -119.375 1033.1875 C-118.715 1033.1875 -118.055 1033.1875 -117.375 1033.1875 C-115.96484375 1034.62109375 -115.96484375 1034.62109375 -114.3125 1036.625 C-110.80429345 1040.77711788 -107.02049595 1044.54557233 -103.09765625 1048.3046875 C-101.375 1050.1875 -101.375 1050.1875 -101.375 1052.1875 C-100.715 1052.1875 -100.055 1052.1875 -99.375 1052.1875 C-97.75 1053.5625 -97.75 1053.5625 -96.375 1055.1875 C-96.375 1055.8475 -96.375 1056.5075 -96.375 1057.1875 C-95.715 1057.1875 -95.055 1057.1875 -94.375 1057.1875 C-93.02113064 1058.83752828 -91.68821858 1060.5049387 -90.375 1062.1875 C-89.715 1062.5175 -89.055 1062.8475 -88.375 1063.1875 C-88.375 1063.8475 -88.375 1064.5075 -88.375 1065.1875 C-87.715 1065.1875 -87.055 1065.1875 -86.375 1065.1875 C-84.96484375 1066.62109375 -84.96484375 1066.62109375 -83.3125 1068.625 C-80.62325006 1071.79507217 -77.83986623 1074.77331525 -74.875 1077.6875 C-72.1505846 1080.3752846 -69.54239688 1083.08566863 -67.0625 1086 C-63.39088677 1090.30675011 -59.36111992 1094.2305943 -55.28588867 1098.15161133 C-53.94597688 1099.46077455 -52.65581058 1100.82046079 -51.375 1102.1875 C-51.375 1102.8475 -51.375 1103.5075 -51.375 1104.1875 C-50.385 1104.5175 -49.395 1104.8475 -48.375 1105.1875 C-48.375 1105.8475 -48.375 1106.5075 -48.375 1107.1875 C-47.4159375 1107.5896875 -47.4159375 1107.5896875 -46.4375 1108 C-44.375 1109.1875 -44.375 1109.1875 -43.375 1112.1875 C-42.385 1112.5175 -41.395 1112.8475 -40.375 1113.1875 C-38.90234375 1114.68359375 -38.90234375 1114.68359375 -37.3125 1116.625 C-34.45595912 1120.00201232 -31.46398676 1123.14597539 -28.3125 1126.25 C-24.89755797 1129.61837464 -21.72611376 1133.05965773 -18.6640625 1136.74609375 C-17.28135101 1138.37378628 -17.28135101 1138.37378628 -14.9375 1140.125 C-12.76377555 1141.87458309 -11.2208524 1143.45368578 -9.4375 1145.5625 C-5.95211514 1149.65303959 -2.19396087 1153.41301538 1.625 1157.1875 C5.91340766 1161.430643 10.07165595 1165.69131848 13.9609375 1170.30859375 C16.76806206 1173.4781405 19.84679157 1176.37666254 22.90234375 1179.3046875 C24.625 1181.1875 24.625 1181.1875 24.625 1183.1875 C25.615 1183.5175 26.605 1183.8475 27.625 1184.1875 C27.625 1184.8475 27.625 1185.5075 27.625 1186.1875 C28.615 1186.5175 29.605 1186.8475 30.625 1187.1875 C30.625 1187.8475 30.625 1188.5075 30.625 1189.1875 C31.285 1189.1875 31.945 1189.1875 32.625 1189.1875 C32.625 1189.8475 32.625 1190.5075 32.625 1191.1875 C33.615 1191.5175 34.605 1191.8475 35.625 1192.1875 C35.625 1192.8475 35.625 1193.5075 35.625 1194.1875 C36.285 1194.1875 36.945 1194.1875 37.625 1194.1875 C38.96484375 1195.55078125 38.96484375 1195.55078125 40.5625 1197.5 C43.60814508 1201.09360633 46.83095303 1204.44908327 50.1875 1207.75 C53.75665272 1211.26972348 57.16184435 1214.85146135 60.3671875 1218.70703125 C62.80690068 1221.57861913 65.5468557 1224.15801305 68.26953125 1226.7578125 C69.75623259 1228.19925127 71.19440276 1229.69036335 72.625 1231.1875 C72.625 1231.8475 72.625 1232.5075 72.625 1233.1875 C73.2025 1233.435 73.78 1233.6825 74.375 1233.9375 C76.95439979 1235.37049988 78.68621592 1236.97174676 80.625 1239.1875 C80.625 1239.8475 80.625 1240.5075 80.625 1241.1875 C81.19734375 1241.42210938 81.7696875 1241.65671875 82.359375 1241.8984375 C85.15034707 1243.48640437 86.78172216 1245.38038222 88.875 1247.8125 C92.48182347 1251.93971093 96.22104265 1255.81687391 100.19140625 1259.59375 C101.625 1261.1875 101.625 1261.1875 101.625 1263.1875 C102.285 1263.1875 102.945 1263.1875 103.625 1263.1875 C103.625 1263.8475 103.625 1264.5075 103.625 1265.1875 C104.285 1265.1875 104.945 1265.1875 105.625 1265.1875 C106.97886936 1266.83752828 108.31178142 1268.5049387 109.625 1270.1875 C110.285 1270.5175 110.945 1270.8475 111.625 1271.1875 C111.625 1271.8475 111.625 1272.5075 111.625 1273.1875 C112.285 1273.1875 112.945 1273.1875 113.625 1273.1875 C114.89453125 1274.48046875 114.89453125 1274.48046875 116.4375 1276.375 C119.81146444 1280.3572683 123.41230428 1284.02652343 127.125 1287.6875 C131.19329214 1291.7088525 135.10116737 1295.76654134 138.79296875 1300.140625 C141.7266598 1303.41835231 144.89597163 1306.46502816 148.07080078 1309.50830078 C149.29184559 1310.69855216 150.46309558 1311.93945077 151.625 1313.1875 C151.625 1313.8475 151.625 1314.5075 151.625 1315.1875 C152.285 1315.1875 152.945 1315.1875 153.625 1315.1875 C153.625 1315.8475 153.625 1316.5075 153.625 1317.1875 C154.615 1317.5175 155.605 1317.8475 156.625 1318.1875 C156.625 1318.8475 156.625 1319.5075 156.625 1320.1875 C157.615 1320.5175 158.605 1320.8475 159.625 1321.1875 C159.625 1321.8475 159.625 1322.5075 159.625 1323.1875 C160.285 1323.1875 160.945 1323.1875 161.625 1323.1875 C166.625 1328.66369048 166.625 1328.66369048 166.625 1331.1875 C167.285 1331.1875 167.945 1331.1875 168.625 1331.1875 C180.625 1344.33035714 180.625 1344.33035714 180.625 1349.1875 C181.285 1349.1875 181.945 1349.1875 182.625 1349.1875 C183.7824707 1350.69702148 183.7824707 1350.69702148 185.05078125 1352.80859375 C185.75170898 1353.96584961 185.75170898 1353.96584961 186.46679688 1355.14648438 C187.19479492 1356.37334961 187.19479492 1356.37334961 187.9375 1357.625 C188.41123047 1358.40810547 188.88496094 1359.19121094 189.37304688 1359.99804688 C211.38364848 1396.58201534 226.84136252 1438.04240215 227.625 1481.1875 C227.64546387 1482.13463867 227.66592773 1483.08177734 227.68701172 1484.05761719 C228.23506989 1513.30852351 225.32756552 1542.16228902 216.625 1570.1875 C216.22474609 1571.49847656 216.22474609 1571.49847656 215.81640625 1572.8359375 C215.13331912 1574.97396163 214.3968832 1577.07995617 213.625 1579.1875 C213.27953125 1580.14269531 212.9340625 1581.09789063 212.578125 1582.08203125 C205.96875079 1599.82863018 197.06975224 1616.08408842 187.1875 1632.1875 C186.54977661 1633.23925415 186.54977661 1633.23925415 185.89916992 1634.31225586 C184.8637194 1635.97353963 183.75129628 1637.58641341 182.625 1639.1875 C181.965 1639.1875 181.305 1639.1875 180.625 1639.1875 C180.4290625 1639.84492188 180.233125 1640.50234375 180.03125 1641.1796875 C178.04046111 1645.43776374 175.13452983 1648.72848291 172.125 1652.3125 C170.94684737 1653.73088332 169.76972194 1655.15012066 168.59375 1656.5703125 C168.07232422 1657.19309082 167.55089844 1657.81586914 167.01367188 1658.45751953 C165.45392123 1660.34848876 165.45392123 1660.34848876 163.625 1663.1875 C162.965 1663.1875 162.305 1663.1875 161.625 1663.1875 C161.625 1663.8475 161.625 1664.5075 161.625 1665.1875 C160.25 1666.8125 160.25 1666.8125 158.625 1668.1875 C157.965 1668.1875 157.305 1668.1875 156.625 1668.1875 C156.295 1669.1775 155.965 1670.1675 155.625 1671.1875 C154.965 1671.1875 154.305 1671.1875 153.625 1671.1875 C153.625 1671.8475 153.625 1672.5075 153.625 1673.1875 C152.25 1674.8125 152.25 1674.8125 150.625 1676.1875 C149.965 1676.1875 149.305 1676.1875 148.625 1676.1875 C148.295 1677.1775 147.965 1678.1675 147.625 1679.1875 C146.965 1679.1875 146.305 1679.1875 145.625 1679.1875 C145.625 1679.8475 145.625 1680.5075 145.625 1681.1875 C142.18087611 1684.4419052 138.35736896 1687.27181462 134.625 1690.1875 C134.04121582 1690.6501123 133.45743164 1691.11272461 132.85595703 1691.58935547 C113.92931495 1706.53678399 93.01123536 1718.26544968 70.625 1727.1875 C69.87992188 1727.51105469 69.13484375 1727.83460937 68.3671875 1728.16796875 C40.63289222 1740.00577771 9.98280797 1744.77185585 -19.98217773 1744.57861328 C-22.94105943 1744.56248059 -25.8985799 1744.57861577 -28.85742188 1744.59765625 C-46.46682295 1744.61802761 -63.77903514 1742.77463524 -80.875 1738.4375 C-81.89907959 1738.18436035 -82.92315918 1737.9312207 -83.97827148 1737.67041016 C-91.19588629 1735.84393891 -98.33375788 1733.78965828 -105.4375 1731.5625 C-106.76587891 1731.14726074 -106.76587891 1731.14726074 -108.12109375 1730.72363281 C-113.48538104 1728.98023944 -118.3840974 1726.79823314 -123.375 1724.1875 C-125.07805803 1723.40508058 -126.78586973 1722.63285502 -128.5 1721.875 C-130.45974424 1720.98225741 -132.41800352 1720.08625 -134.375 1719.1875 C-135.40238281 1718.71957031 -136.42976563 1718.25164062 -137.48828125 1717.76953125 C-153.31162883 1710.23903093 -167.74207527 1700.1348691 -181.375 1689.1875 C-182.36886719 1688.42050781 -183.36273437 1687.65351563 -184.38671875 1686.86328125 C-185.31097656 1686.14527344 -186.23523437 1685.42726563 -187.1875 1684.6875 C-187.99832031 1684.0584375 -188.80914063 1683.429375 -189.64453125 1682.78125 C-190.50111328 1681.99234375 -190.50111328 1681.99234375 -191.375 1681.1875 C-191.375 1680.5275 -191.375 1679.8675 -191.375 1679.1875 C-192.365 1678.8575 -193.355 1678.5275 -194.375 1678.1875 C-194.375 1677.5275 -194.375 1676.8675 -194.375 1676.1875 C-195.035 1676.1875 -195.695 1676.1875 -196.375 1676.1875 C-196.375 1675.5275 -196.375 1674.8675 -196.375 1674.1875 C-196.99375 1673.94 -197.6125 1673.6925 -198.25 1673.4375 C-200.72568687 1671.98121361 -201.32625002 1670.80937494 -202.375 1668.1875 C-203.035 1668.1875 -203.695 1668.1875 -204.375 1668.1875 C-204.375 1667.5275 -204.375 1666.8675 -204.375 1666.1875 C-205.365 1665.8575 -206.355 1665.5275 -207.375 1665.1875 C-207.375 1664.5275 -207.375 1663.8675 -207.375 1663.1875 C-208.365 1662.8575 -209.355 1662.5275 -210.375 1662.1875 C-210.375 1661.5275 -210.375 1660.8675 -210.375 1660.1875 C-211.035 1660.1875 -211.695 1660.1875 -212.375 1660.1875 C-212.375 1659.5275 -212.375 1658.8675 -212.375 1658.1875 C-213.365 1657.8575 -214.355 1657.5275 -215.375 1657.1875 C-215.375 1656.5275 -215.375 1655.8675 -215.375 1655.1875 C-216.035 1655.1875 -216.695 1655.1875 -217.375 1655.1875 C-218.71484375 1653.82421875 -218.71484375 1653.82421875 -220.3125 1651.875 C-223.35814508 1648.28139367 -226.58095303 1644.92591673 -229.9375 1641.625 C-233.50665272 1638.10527652 -236.91184435 1634.52353865 -240.1171875 1630.66796875 C-242.55690068 1627.79638087 -245.2968557 1625.21698695 -248.01953125 1622.6171875 C-249.50623259 1621.17574873 -250.94440276 1619.68463665 -252.375 1618.1875 C-252.375 1617.5275 -252.375 1616.8675 -252.375 1616.1875 C-252.9525 1615.94 -253.53 1615.6925 -254.125 1615.4375 C-256.70439979 1614.00450012 -258.43621592 1612.40325324 -260.375 1610.1875 C-260.375 1609.5275 -260.375 1608.8675 -260.375 1608.1875 C-260.94734375 1607.95289062 -261.5196875 1607.71828125 -262.109375 1607.4765625 C-264.90034707 1605.88859563 -266.53172216 1603.99461778 -268.625 1601.5625 C-272.23182347 1597.43528907 -275.97104265 1593.55812609 -279.94140625 1589.78125 C-281.375 1588.1875 -281.375 1588.1875 -281.375 1586.1875 C-282.035 1586.1875 -282.695 1586.1875 -283.375 1586.1875 C-283.375 1585.5275 -283.375 1584.8675 -283.375 1584.1875 C-284.365 1583.8575 -285.355 1583.5275 -286.375 1583.1875 C-286.375 1582.5275 -286.375 1581.8675 -286.375 1581.1875 C-287.035 1581.1875 -287.695 1581.1875 -288.375 1581.1875 C-288.375 1580.5275 -288.375 1579.8675 -288.375 1579.1875 C-289.365 1578.8575 -290.355 1578.5275 -291.375 1578.1875 C-291.375 1577.5275 -291.375 1576.8675 -291.375 1576.1875 C-292.035 1576.1875 -292.695 1576.1875 -293.375 1576.1875 C-294.609375 1574.9296875 -294.609375 1574.9296875 -296.125 1573.0625 C-299.66879449 1568.87844012 -303.47656432 1565.03575222 -307.375 1561.1875 C-311.70710861 1556.90180886 -315.91309767 1552.5962298 -319.84375 1547.93359375 C-322.11132375 1545.34786552 -324.59154465 1542.99384242 -327.08984375 1540.6328125 C-328.375 1539.1875 -328.375 1539.1875 -328.375 1537.1875 C-329.365 1536.8575 -330.355 1536.5275 -331.375 1536.1875 C-331.375 1535.5275 -331.375 1534.8675 -331.375 1534.1875 C-332.3340625 1533.7853125 -332.3340625 1533.7853125 -333.3125 1533.375 C-335.375 1532.1875 -335.375 1532.1875 -336.375 1529.1875 C-337.035 1528.8575 -337.695 1528.5275 -338.375 1528.1875 C-340.375 1527.1875 -340.375 1527.1875 -341.375 1524.1875 C-342.365 1523.8575 -343.355 1523.5275 -344.375 1523.1875 C-345.8828125 1521.65625 -345.8828125 1521.65625 -347.5 1519.6875 C-350.98459716 1515.55373806 -354.75062826 1511.8091851 -358.65234375 1508.0703125 C-360.375 1506.1875 -360.375 1506.1875 -360.375 1504.1875 C-361.035 1504.1875 -361.695 1504.1875 -362.375 1504.1875 C-362.375 1503.5275 -362.375 1502.8675 -362.375 1502.1875 C-363.035 1502.1875 -363.695 1502.1875 -364.375 1502.1875 C-366 1500.8125 -366 1500.8125 -367.375 1499.1875 C-367.375 1498.5275 -367.375 1497.8675 -367.375 1497.1875 C-368.035 1497.1875 -368.695 1497.1875 -369.375 1497.1875 C-370.57421875 1495.96484375 -370.57421875 1495.96484375 -372.0625 1494.125 C-375.77591512 1489.7392613 -379.790932 1485.72274054 -383.875 1481.6875 C-388.34045069 1477.26641705 -392.70169187 1472.84651699 -396.74609375 1468.03125 C-399.53812188 1464.87096876 -402.60908291 1461.98655911 -405.65234375 1459.0703125 C-407.375 1457.1875 -407.375 1457.1875 -407.375 1455.1875 C-408.365 1454.8575 -409.355 1454.5275 -410.375 1454.1875 C-410.375 1453.5275 -410.375 1452.8675 -410.375 1452.1875 C-411.035 1452.1875 -411.695 1452.1875 -412.375 1452.1875 C-412.375 1451.5275 -412.375 1450.8675 -412.375 1450.1875 C-413.365 1449.8575 -414.355 1449.5275 -415.375 1449.1875 C-415.375 1448.5275 -415.375 1447.8675 -415.375 1447.1875 C-416.035 1447.1875 -416.695 1447.1875 -417.375 1447.1875 C-417.375 1446.5275 -417.375 1445.8675 -417.375 1445.1875 C-418.365 1444.8575 -419.355 1444.5275 -420.375 1444.1875 C-420.375 1443.5275 -420.375 1442.8675 -420.375 1442.1875 C-421.365 1441.8575 -422.355 1441.5275 -423.375 1441.1875 C-424.91796875 1439.62109375 -424.91796875 1439.62109375 -426.5625 1437.625 C-429.79326442 1433.79364476 -433.24379734 1430.30678602 -436.87109375 1426.8515625 C-438.375 1425.1875 -438.375 1425.1875 -438.375 1423.1875 C-439.035 1423.1875 -439.695 1423.1875 -440.375 1423.1875 C-441.70703125 1421.796875 -441.70703125 1421.796875 -443.1875 1419.9375 C-444.9971591 1417.74755022 -446.57523125 1416.02834183 -448.8125 1414.25 C-452.96621921 1410.90676259 -457.07375748 1406.82298756 -459.453125 1402.00390625 C-460.65266067 1399.64041436 -462.04239712 1399.31617881 -464.375 1398.1875 C-464.705 1397.1975 -465.035 1396.2075 -465.375 1395.1875 C-465.96796875 1394.89101562 -466.5609375 1394.59453125 -467.171875 1394.2890625 C-470.02842321 1392.8607884 -471.54569398 1390.97838434 -473.625 1388.5625 C-477.23182347 1384.43528907 -480.97104265 1380.55812609 -484.94140625 1376.78125 C-486.375 1375.1875 -486.375 1375.1875 -486.375 1373.1875 C-487.035 1373.1875 -487.695 1373.1875 -488.375 1373.1875 C-488.375 1372.5275 -488.375 1371.8675 -488.375 1371.1875 C-489.365 1370.8575 -490.355 1370.5275 -491.375 1370.1875 C-491.375 1369.5275 -491.375 1368.8675 -491.375 1368.1875 C-492.035 1368.1875 -492.695 1368.1875 -493.375 1368.1875 C-495 1366.8125 -495 1366.8125 -496.375 1365.1875 C-496.375 1364.5275 -496.375 1363.8675 -496.375 1363.1875 C-497.365 1362.8575 -498.355 1362.5275 -499.375 1362.1875 C-499.375 1361.5275 -499.375 1360.8675 -499.375 1360.1875 C-500.035 1360.1875 -500.695 1360.1875 -501.375 1360.1875 C-502.78515625 1358.75390625 -502.78515625 1358.75390625 -504.4375 1356.75 C-507.94570655 1352.59788212 -511.72950405 1348.82942767 -515.65234375 1345.0703125 C-517.375 1343.1875 -517.375 1343.1875 -517.375 1341.1875 C-518.035 1341.1875 -518.695 1341.1875 -519.375 1341.1875 C-520.75 1339.7890625 -520.75 1339.7890625 -522.375 1337.8125 C-526.13722012 1333.35828591 -530.23558282 1329.33066468 -534.43359375 1325.2890625 C-536.375 1323.1875 -536.375 1323.1875 -536.375 1321.1875 C-537.014375 1320.919375 -537.65375 1320.65125 -538.3125 1320.375 C-540.375 1319.1875 -540.375 1319.1875 -541.375 1316.1875 C-542.365 1315.8575 -543.355 1315.5275 -544.375 1315.1875 C-544.375 1314.5275 -544.375 1313.8675 -544.375 1313.1875 C-544.94605469 1312.95417969 -545.51710938 1312.72085938 -546.10546875 1312.48046875 C-548.91840722 1310.87791688 -550.5752773 1308.94987819 -552.6875 1306.5 C-556.94219575 1301.64950666 -561.33027763 1297.00071122 -566.0703125 1292.62109375 C-567.375 1291.1875 -567.375 1291.1875 -567.375 1289.1875 C-568.035 1289.1875 -568.695 1289.1875 -569.375 1289.1875 C-569.931875 1288.48625 -570.48875 1287.785 -571.0625 1287.0625 C-572.91018944 1284.76537259 -574.4497198 1283.20636721 -576.6875 1281.375 C-579.99471261 1278.62250034 -582.71122911 1275.59776842 -585.4921875 1272.32421875 C-587.53139232 1270.01001743 -589.67743458 1267.85154323 -591.875 1265.6875 C-595.27384056 1262.33458972 -598.4375073 1258.87190321 -601.53515625 1255.2421875 C-604.41580344 1252.02515901 -607.53563705 1249.05693962 -610.65234375 1246.0703125 C-612.375 1244.1875 -612.375 1244.1875 -612.375 1242.1875 C-613.365 1241.8575 -614.355 1241.5275 -615.375 1241.1875 C-615.375 1240.5275 -615.375 1239.8675 -615.375 1239.1875 C-616.035 1239.1875 -616.695 1239.1875 -617.375 1239.1875 C-617.375 1238.5275 -617.375 1237.8675 -617.375 1237.1875 C-618.365 1236.8575 -619.355 1236.5275 -620.375 1236.1875 C-620.375 1235.5275 -620.375 1234.8675 -620.375 1234.1875 C-621.365 1233.8575 -622.355 1233.5275 -623.375 1233.1875 C-623.375 1232.5275 -623.375 1231.8675 -623.375 1231.1875 C-624.035 1231.1875 -624.695 1231.1875 -625.375 1231.1875 C-625.375 1230.5275 -625.375 1229.8675 -625.375 1229.1875 C-626.035 1229.1875 -626.695 1229.1875 -627.375 1229.1875 C-628.78515625 1227.75390625 -628.78515625 1227.75390625 -630.4375 1225.75 C-633.1453509 1222.55699248 -635.95185914 1219.56020774 -638.9375 1216.625 C-642.10066635 1213.50479686 -645.07750671 1210.32888068 -647.890625 1206.890625 C-650.82097001 1203.52843967 -654.07851395 1200.4754027 -657.26953125 1197.36328125 C-658.24221196 1196.4088791 -659.21486808 1195.45445188 -660.1875 1194.5 C-660.68958984 1194.01466797 -661.19167969 1193.52933594 -661.70898438 1193.02929688 C-662.96917273 1191.78625394 -664.17691044 1190.49050108 -665.375 1189.1875 C-665.375 1188.5275 -665.375 1187.8675 -665.375 1187.1875 C-666.26687012 1186.79135498 -666.26687012 1186.79135498 -667.17675781 1186.38720703 C-669.4621796 1185.13992108 -670.80523597 1183.91104403 -672.546875 1181.9921875 C-673.12550293 1181.36207764 -673.70413086 1180.73196777 -674.30029297 1180.08276367 C-674.90244629 1179.41607666 -675.50459961 1178.74938965 -676.125 1178.0625 C-677.37115374 1176.70068528 -678.61854228 1175.33999941 -679.8671875 1173.98046875 C-680.46756836 1173.3261084 -681.06794922 1172.67174805 -681.68652344 1171.99755859 C-684.39471575 1169.09435764 -687.23617593 1166.3357998 -690.1171875 1163.60546875 C-691.375 1162.1875 -691.375 1162.1875 -691.375 1160.1875 C-692.035 1160.1875 -692.695 1160.1875 -693.375 1160.1875 C-695 1158.8125 -695 1158.8125 -696.375 1157.1875 C-696.375 1156.5275 -696.375 1155.8675 -696.375 1155.1875 C-697.365 1154.8575 -698.355 1154.5275 -699.375 1154.1875 C-699.375 1153.5275 -699.375 1152.8675 -699.375 1152.1875 C-700.035 1152.1875 -700.695 1152.1875 -701.375 1152.1875 C-703 1150.8125 -703 1150.8125 -704.375 1149.1875 C-704.375 1148.5275 -704.375 1147.8675 -704.375 1147.1875 C-705.035 1147.1875 -705.695 1147.1875 -706.375 1147.1875 C-707.78515625 1145.75390625 -707.78515625 1145.75390625 -709.4375 1143.75 C-712.12674994 1140.57992783 -714.91013377 1137.60168475 -717.875 1134.6875 C-720.5994154 1131.9997154 -723.20760312 1129.28933137 -725.6875 1126.375 C-729.35911323 1122.06824989 -733.38888008 1118.1444057 -737.46411133 1114.22338867 C-738.80402312 1112.91422545 -740.09418942 1111.55453921 -741.375 1110.1875 C-741.375 1109.5275 -741.375 1108.8675 -741.375 1108.1875 C-742.365 1107.8575 -743.355 1107.5275 -744.375 1107.1875 C-744.375 1106.5275 -744.375 1105.8675 -744.375 1105.1875 C-745.3340625 1104.7853125 -745.3340625 1104.7853125 -746.3125 1104.375 C-748.375 1103.1875 -748.375 1103.1875 -749.375 1100.1875 C-750.365 1099.8575 -751.355 1099.5275 -752.375 1099.1875 C-753.84765625 1097.69140625 -753.84765625 1097.69140625 -755.4375 1095.75 C-759.07688787 1091.44468158 -763.00793074 1087.51539901 -767.04296875 1083.58203125 C-769.375 1081.1875 -769.375 1081.1875 -771.55078125 1078.44921875 C-773.17581156 1076.11399716 -773.17581156 1076.11399716 -775.375 1075.1875 C-775.375 1074.5275 -775.375 1073.8675 -775.375 1073.1875 C-776.035 1073.1875 -776.695 1073.1875 -777.375 1073.1875 C-778.70703125 1071.83203125 -778.70703125 1071.83203125 -780.1875 1070 C-782.7405385 1066.85832528 -785.48877156 1064.02724452 -788.375 1061.1875 C-800.36979421 1049.35028649 -800.36979421 1049.35028649 -805.57421875 1043.203125 C-808.68265741 1039.7238314 -812.07381724 1036.52366105 -815.43359375 1033.2890625 C-817.375 1031.1875 -817.375 1031.1875 -817.375 1029.1875 C-818.365 1028.8575 -819.355 1028.5275 -820.375 1028.1875 C-820.375 1027.5275 -820.375 1026.8675 -820.375 1026.1875 C-821.365 1025.8575 -822.355 1025.5275 -823.375 1025.1875 C-823.375 1024.5275 -823.375 1023.8675 -823.375 1023.1875 C-824.035 1023.1875 -824.695 1023.1875 -825.375 1023.1875 C-826.94168459 1021.51851325 -828.430181 1019.77553244 -829.875 1018 C-830.6690625 1017.03707031 -831.463125 1016.07414062 -832.28125 1015.08203125 C-834.17558529 1012.4631834 -835.35095287 1010.23181404 -836.375 1007.1875 C-837.035 1007.1875 -837.695 1007.1875 -838.375 1007.1875 C-839.8828125 1005.2890625 -839.8828125 1005.2890625 -841.5 1002.8125 C-842.03882813 1002.00039062 -842.57765625 1001.18828125 -843.1328125 1000.3515625 C-844.375 998.1875 -844.375 998.1875 -844.375 996.1875 C-845.035 996.1875 -845.695 996.1875 -846.375 996.1875 C-847.51660156 994.72558594 -847.51660156 994.72558594 -848.765625 992.671875 C-849.22493408 991.92123779 -849.68424316 991.17060059 -850.1574707 990.3972168 C-850.64175537 989.58551025 -851.12604004 988.77380371 -851.625 987.9375 C-852.12153076 987.11354736 -852.61806152 986.28959473 -853.12963867 985.44067383 C-856.8728596 979.1680674 -860.28474135 972.80817283 -863.375 966.1875 C-863.84035156 965.23617187 -864.30570313 964.28484375 -864.78515625 963.3046875 C-875.4519878 941.06078811 -882.48964814 917.57032124 -886.08251953 893.16357422 C-886.36683451 891.24266815 -886.68103634 889.3262601 -886.99609375 887.41015625 C-891.98453603 853.84097182 -888.23854073 818.68919965 -879.375 786.1875 C-879.1879248 785.49849609 -879.00084961 784.80949219 -878.80810547 784.09960938 C-877.78740646 780.41591365 -876.62600263 776.79888494 -875.375 773.1875 C-874.98183594 772.02605469 -874.58867188 770.86460937 -874.18359375 769.66796875 C-865.20503423 744.01257853 -851.81625738 720.28868389 -834.87597656 699.09960938 C-833.30785299 697.10196074 -831.80591849 695.06389038 -830.3046875 693.015625 C-827.89106653 689.7819063 -825.30317216 686.97558985 -822.375 684.1875 C-821.31991204 683.12667786 -820.26802398 682.06266692 -819.21875 680.99609375 C-818.10419883 679.87236393 -816.98961505 678.74866645 -815.875 677.625 C-815.31941406 677.06103516 -814.76382813 676.49707031 -814.19140625 675.91601562 C-811.07621236 672.78249707 -807.97169607 669.77737446 -804.375 667.1875 C-803.715 667.1875 -803.055 667.1875 -802.375 667.1875 C-802.00375 666.32125 -802.00375 666.32125 -801.625 665.4375 C-800.19200012 662.85810021 -798.59075324 661.12628408 -796.375 659.1875 C-795.715 659.1875 -795.055 659.1875 -794.375 659.1875 C-794.00375 658.32125 -794.00375 658.32125 -793.625 657.4375 C-792.19200012 654.85810021 -790.59075324 653.12628408 -788.375 651.1875 C-787.715 651.1875 -787.055 651.1875 -786.375 651.1875 C-786.14039063 650.61515625 -785.90578125 650.0428125 -785.6640625 649.453125 C-784.07609563 646.66215293 -782.18211778 645.03077784 -779.75 642.9375 C-775.62278907 639.33067653 -771.74562609 635.59145735 -767.96875 631.62109375 C-766.375 630.1875 -766.375 630.1875 -764.375 630.1875 C-764.375 629.5275 -764.375 628.8675 -764.375 628.1875 C-763.715 628.1875 -763.055 628.1875 -762.375 628.1875 C-762.045 627.1975 -761.715 626.2075 -761.375 625.1875 C-760.715 625.1875 -760.055 625.1875 -759.375 625.1875 C-759.375 624.5275 -759.375 623.8675 -759.375 623.1875 C-758.715 623.1875 -758.055 623.1875 -757.375 623.1875 C-757.045 622.1975 -756.715 621.2075 -756.375 620.1875 C-755.715 620.1875 -755.055 620.1875 -754.375 620.1875 C-754.375 619.5275 -754.375 618.8675 -754.375 618.1875 C-753.08203125 616.91796875 -753.08203125 616.91796875 -751.1875 615.375 C-747.2052317 612.00103556 -743.53597657 608.40019572 -739.875 604.6875 C-735.8536475 600.61920786 -731.79595866 596.71133263 -727.421875 593.01953125 C-724.14414769 590.0858402 -721.09747184 586.91652837 -718.05419922 583.74169922 C-716.86394784 582.52065441 -715.62304923 581.34940442 -714.375 580.1875 C-713.715 580.1875 -713.055 580.1875 -712.375 580.1875 C-711.9728125 579.2284375 -711.9728125 579.2284375 -711.5625 578.25 C-710.375 576.1875 -710.375 576.1875 -707.375 575.1875 C-707.045 574.5275 -706.715 573.8675 -706.375 573.1875 C-705.375 571.1875 -705.375 571.1875 -702.375 570.1875 C-702.045 569.1975 -701.715 568.2075 -701.375 567.1875 C-699.84375 565.6796875 -699.84375 565.6796875 -697.875 564.0625 C-694.67802751 561.35825087 -691.68611752 558.54838223 -688.75 555.5625 C-686.21364475 552.98665133 -683.68291657 550.52723377 -680.875 548.25 C-678.32909402 546.43346981 -678.32909402 546.43346981 -677.375 544.1875 C-676.715 544.1875 -676.055 544.1875 -675.375 544.1875 C-675.375 543.5275 -675.375 542.8675 -675.375 542.1875 C-674.08203125 540.91796875 -674.08203125 540.91796875 -672.1875 539.375 C-667.41909741 535.35139279 -663.09701382 530.94150395 -658.76879883 526.45581055 C-657.34017864 524.99691666 -655.86135008 523.5875323 -654.375 522.1875 C-653.715 522.1875 -653.055 522.1875 -652.375 522.1875 C-652.045 521.1975 -651.715 520.2075 -651.375 519.1875 C-649.80859375 517.64453125 -649.80859375 517.64453125 -647.8125 516 C-643.98114476 512.76923558 -640.49428602 509.31870266 -637.0390625 505.69140625 C-635.375 504.1875 -635.375 504.1875 -633.375 504.1875 C-633.375 503.5275 -633.375 502.8675 -633.375 502.1875 C-632 500.5625 -632 500.5625 -630.375 499.1875 C-629.715 499.1875 -629.055 499.1875 -628.375 499.1875 C-628.045 498.1975 -627.715 497.2075 -627.375 496.1875 C-626.715 496.1875 -626.055 496.1875 -625.375 496.1875 C-625.375 495.5275 -625.375 494.8675 -625.375 494.1875 C-624.715 494.1875 -624.055 494.1875 -623.375 494.1875 C-623.045 493.1975 -622.715 492.2075 -622.375 491.1875 C-621.715 491.1875 -621.055 491.1875 -620.375 491.1875 C-620.375 490.5275 -620.375 489.8675 -620.375 489.1875 C-618.9765625 487.8125 -618.9765625 487.8125 -617 486.1875 C-613.62704852 483.32704645 -610.47826523 480.33880339 -607.375 477.1875 C-603.88343652 473.65342129 -600.30872285 470.34187874 -596.52734375 467.125 C-593.22065987 464.14838438 -590.13301454 460.95364332 -587.05493164 457.74243164 C-585.864431 456.52114772 -584.6233019 455.34963965 -583.375 454.1875 C-582.715 454.1875 -582.055 454.1875 -581.375 454.1875 C-581.045 453.1975 -580.715 452.2075 -580.375 451.1875 C-579.715 451.1875 -579.055 451.1875 -578.375 451.1875 C-578.106875 450.548125 -577.83875 449.90875 -577.5625 449.25 C-576.375 447.1875 -576.375 447.1875 -573.375 446.1875 C-573.045 445.1975 -572.715 444.2075 -572.375 443.1875 C-571.715 443.1875 -571.055 443.1875 -570.375 443.1875 C-570.375 442.5275 -570.375 441.8675 -570.375 441.1875 C-568.94140625 439.77734375 -568.94140625 439.77734375 -566.9375 438.125 C-562.78538212 434.61679345 -559.01692767 430.83299595 -555.2578125 426.91015625 C-553.375 425.1875 -553.375 425.1875 -551.375 425.1875 C-551.375 424.5275 -551.375 423.8675 -551.375 423.1875 C-550 421.5625 -550 421.5625 -548.375 420.1875 C-547.715 420.1875 -547.055 420.1875 -546.375 420.1875 C-546.375 419.5275 -546.375 418.8675 -546.375 418.1875 C-545 416.5625 -545 416.5625 -543.375 415.1875 C-542.715 415.1875 -542.055 415.1875 -541.375 415.1875 C-541.375 414.5275 -541.375 413.8675 -541.375 413.1875 C-540.046875 411.8828125 -540.046875 411.8828125 -538.125 410.3125 C-534.34468796 407.10861852 -530.84830205 403.71438045 -527.375 400.1875 C-523.49016835 396.25308762 -519.54618716 392.49771407 -515.32421875 388.921875 C-512.13589974 386.08497392 -509.20933122 382.99022544 -506.2578125 379.91015625 C-504.375 378.1875 -504.375 378.1875 -502.375 378.1875 C-502.045 377.1975 -501.715 376.2075 -501.375 375.1875 C-500.715 375.1875 -500.055 375.1875 -499.375 375.1875 C-499.045 374.1975 -498.715 373.2075 -498.375 372.1875 C-497.715 372.1875 -497.055 372.1875 -496.375 372.1875 C-496.375 371.5275 -496.375 370.8675 -496.375 370.1875 C-495.715 370.1875 -495.055 370.1875 -494.375 370.1875 C-494.045 369.1975 -493.715 368.2075 -493.375 367.1875 C-492.715 367.1875 -492.055 367.1875 -491.375 367.1875 C-491.375 366.5275 -491.375 365.8675 -491.375 365.1875 C-490.046875 363.8828125 -490.046875 363.8828125 -488.125 362.3125 C-483.60934706 358.50090047 -479.50557084 354.35502273 -475.41308594 350.10009766 C-474.10304226 348.75975655 -472.74271234 347.46894125 -471.375 346.1875 C-470.715 346.1875 -470.055 346.1875 -469.375 346.1875 C-469.375 345.5275 -469.375 344.8675 -469.375 344.1875 C-468.715 344.1875 -468.055 344.1875 -467.375 344.1875 C-467.375 343.5275 -467.375 342.8675 -467.375 342.1875 C-466.01953125 340.85546875 -466.01953125 340.85546875 -464.1875 339.375 C-461.84815735 337.44681454 -459.75452397 335.55292224 -457.625 333.375 C-455.375 331.1875 -455.375 331.1875 -452.375 330.1875 C-451.69013275 328.86342331 -451.02629797 327.52840759 -450.375 326.1875 C-448.375 323.9375 -448.375 323.9375 -446.375 322.1875 C-445.715 322.1875 -445.055 322.1875 -444.375 322.1875 C-444.106875 321.548125 -443.83875 320.90875 -443.5625 320.25 C-442.375 318.1875 -442.375 318.1875 -439.375 317.1875 C-439.375 316.5275 -439.375 315.8675 -439.375 315.1875 C-437.94140625 313.77734375 -437.94140625 313.77734375 -435.9375 312.125 C-431.78538212 308.61679345 -428.01692767 304.83299595 -424.2578125 300.91015625 C-422.375 299.1875 -422.375 299.1875 -420.375 299.1875 C-420.045 298.1975 -419.715 297.2075 -419.375 296.1875 C-418.715 296.1875 -418.055 296.1875 -417.375 296.1875 C-417.375 295.5275 -417.375 294.8675 -417.375 294.1875 C-416 292.5625 -416 292.5625 -414.375 291.1875 C-413.715 291.1875 -413.055 291.1875 -412.375 291.1875 C-412.375 290.5275 -412.375 289.8675 -412.375 289.1875 C-410.73148543 287.82573078 -409.05977344 286.49787934 -407.375 285.1875 C-405.69277786 283.53653537 -404.02839669 281.86733182 -402.375 280.1875 C-390.53514361 268.19046823 -390.53514361 268.19046823 -384.390625 262.98828125 C-380.9113314 259.87984259 -377.71116105 256.48868276 -374.4765625 253.12890625 C-372.375 251.1875 -372.375 251.1875 -370.375 251.1875 C-370.106875 250.548125 -369.83875 249.90875 -369.5625 249.25 C-368.375 247.1875 -368.375 247.1875 -365.375 246.1875 C-365.045 245.1975 -364.715 244.2075 -364.375 243.1875 C-363.715 243.1875 -363.055 243.1875 -362.375 243.1875 C-362.375 242.5275 -362.375 241.8675 -362.375 241.1875 C-361.715 241.1875 -361.055 241.1875 -360.375 241.1875 C-360.045 240.1975 -359.715 239.2075 -359.375 238.1875 C-358.715 238.1875 -358.055 238.1875 -357.375 238.1875 C-357.375 237.5275 -357.375 236.8675 -357.375 236.1875 C-355.94140625 234.77734375 -355.94140625 234.77734375 -353.9375 233.125 C-349.78538212 229.61679345 -346.01692767 225.83299595 -342.2578125 221.91015625 C-340.375 220.1875 -340.375 220.1875 -338.375 220.1875 C-338.375 219.5275 -338.375 218.8675 -338.375 218.1875 C-337 216.5625 -337 216.5625 -335.375 215.1875 C-334.715 215.1875 -334.055 215.1875 -333.375 215.1875 C-333.375 214.5275 -333.375 213.8675 -333.375 213.1875 C-332.08203125 211.91796875 -332.08203125 211.91796875 -330.1875 210.375 C-325.41909741 206.35139279 -321.09701382 201.94150395 -316.76879883 197.45581055 C-315.34017864 195.99691666 -313.86135008 194.5875323 -312.375 193.1875 C-311.715 193.1875 -311.055 193.1875 -310.375 193.1875 C-309.98828125 192.29417969 -309.98828125 192.29417969 -309.59375 191.3828125 C-308.26688606 188.9927563 -306.98390657 187.78246888 -304.875 186.0625 C-300.45698663 182.3484558 -296.47736816 178.28454185 -292.4765625 174.12890625 C-290.375 172.1875 -290.375 172.1875 -288.375 172.1875 C-288.375 171.5275 -288.375 170.8675 -288.375 170.1875 C-287.715 170.1875 -287.055 170.1875 -286.375 170.1875 C-286.045 169.1975 -285.715 168.2075 -285.375 167.1875 C-284.715 167.1875 -284.055 167.1875 -283.375 167.1875 C-283.375 166.5275 -283.375 165.8675 -283.375 165.1875 C-282 163.5625 -282 163.5625 -280.375 162.1875 C-279.715 162.1875 -279.055 162.1875 -278.375 162.1875 C-278.045 161.1975 -277.715 160.2075 -277.375 159.1875 C-276.715 159.1875 -276.055 159.1875 -275.375 159.1875 C-275.375 158.5275 -275.375 157.8675 -275.375 157.1875 C-273.90625 155.7421875 -273.90625 155.7421875 -271.875 154.0625 C-268.88524736 151.52621954 -266.05789724 148.92412321 -263.3125 146.125 C-260.31845507 143.08398966 -257.21429763 140.28319621 -253.94921875 137.5390625 C-250.81782466 134.8505703 -248.00466419 131.83804311 -245.13671875 128.875 C-243.92435547 127.6375 -243.92435547 127.6375 -242.6875 126.375 C-241.53701172 125.18970703 -241.53701172 125.18970703 -240.36328125 123.98046875 C-238.375 122.1875 -238.375 122.1875 -236.375 122.1875 C-236.106875 121.548125 -235.83875 120.90875 -235.5625 120.25 C-234.375 118.1875 -234.375 118.1875 -231.375 117.1875 C-231.045 116.1975 -230.715 115.2075 -230.375 114.1875 C-229.715 114.1875 -229.055 114.1875 -228.375 114.1875 C-228.11847656 113.59324219 -227.86195313 112.99898437 -227.59765625 112.38671875 C-226.25790435 109.97687747 -224.9376757 108.73878012 -222.8125 107 C-217.46374442 102.48088716 -212.49833371 97.5568242 -207.73828125 92.421875 C-206.375 91.1875 -206.375 91.1875 -204.375 91.1875 C-204.375 90.5275 -204.375 89.8675 -204.375 89.1875 C-202.72497172 87.83363064 -201.0575613 86.50071858 -199.375 85.1875 C-199.045 84.5275 -198.715 83.8675 -198.375 83.1875 C-197.715 83.1875 -197.055 83.1875 -196.375 83.1875 C-196.375 82.5275 -196.375 81.8675 -196.375 81.1875 C-195.01171875 79.8125 -195.01171875 79.8125 -193.0625 78.1875 C-188.47476372 74.3055693 -184.08485957 70.23111528 -179.6953125 66.12890625 C-177.375 64.1875 -177.375 64.1875 -175.375 64.1875 C-175.375 63.5275 -175.375 62.8675 -175.375 62.1875 C-174.00146484 60.92236328 -174.00146484 60.92236328 -172.0859375 59.5078125 C-171.39113281 58.99089844 -170.69632813 58.47398438 -169.98046875 57.94140625 C-169.24441406 57.40386719 -168.50835938 56.86632813 -167.75 56.3125 C-167.03714844 55.78269531 -166.32429688 55.25289062 -165.58984375 54.70703125 C-154.0683933 46.1875 -154.0683933 46.1875 -151.375 46.1875 C-151.375 45.5275 -151.375 44.8675 -151.375 44.1875 C-149.725 43.8575 -148.075 43.5275 -146.375 43.1875 C-146.375 42.5275 -146.375 41.8675 -146.375 41.1875 C-143.46951118 39.14580515 -141.97357954 38.1875 -138.375 38.1875 C-138.375 37.5275 -138.375 36.8675 -138.375 36.1875 C-94.04539153 13.76661972 -50.11702486 -0.08280296 0 0 Z " fill="#00939E" transform="translate(1438.375,1203.8125)"/>
<path d="M0 0 C10.9292937 2.52094024 21.56090391 5.69470528 32.23046875 9.14453125 C45.76305028 13.51793537 59.40111314 17.55060924 73.0625 21.5 C81.75259607 24.01311224 90.38321248 26.67544221 98.99462891 29.4453125 C106.59179037 31.88515697 114.22362223 34.19242995 121.87109375 36.46875 C127.4215663 38.12130395 132.96093084 39.80968456 138.5 41.5 C145.59850002 43.66515451 152.7016347 45.81332547 159.8125 47.9375 C170.77462442 51.21578947 181.7069937 54.58993199 192.64013672 57.96337891 C221.3440709 66.83779274 221.3440709 66.83779274 250.10546875 75.5234375 C259.83763603 78.42173183 269.52731559 81.42620225 279.19580078 84.53076172 C284.25587328 86.14886587 289.32125011 87.69452652 294.4375 89.125 C306.98259352 92.66872725 318.44712376 96.93947476 330 103 C332.0196114 103.98168453 334.04040159 104.96094854 336.0625 105.9375 C342.57657586 109.19893339 349.07117792 112.75419838 355 117 C355 117.66 355 118.32 355 119 C356.32 119.33 357.64 119.66 359 120 C359 120.66 359 121.32 359 122 C359.721875 122.2475 360.44375 122.495 361.1875 122.75 C364.27606582 124.12269592 366.51011418 125.72353296 369 128 C369 128.66 369 129.32 369 130 C369.59530518 130.27078369 370.19061035 130.54156738 370.80395508 130.82055664 C372.97403559 131.98605513 374.39984624 133.14192966 376.13671875 134.87109375 C376.7100293 135.44029541 377.28333984 136.00949707 377.87402344 136.59594727 C378.4724707 137.20365967 379.07091797 137.81137207 379.6875 138.4375 C380.3052832 139.06132568 380.92306641 139.68515137 381.55957031 140.32788086 C395.34983305 154.41457316 395.34983305 154.41457316 398 162 C398.66 162 399.32 162 400 162 C401.29345703 163.74975586 401.29345703 163.74975586 402.7578125 166.21484375 C403.29720459 167.12008789 403.83659668 168.02533203 404.39233398 168.95800781 C404.96411377 169.94124023 405.53589355 170.92447266 406.125 171.9375 C406.71031494 172.94006836 407.29562988 173.94263672 407.89868164 174.97558594 C418.34753835 193.09059017 425.72572361 211.48921061 430 232 C430.27263672 233.08861328 430.27263672 233.08861328 430.55078125 234.19921875 C435.82697972 255.34428895 436.11357562 279.67502211 432 301 C431.84934082 301.7852002 431.69868164 302.57040039 431.54345703 303.37939453 C428.67564955 317.83413601 424.45201265 331.81280785 419.99658203 345.84521484 C418.48316076 350.63610894 417.02081487 355.44209829 415.5625 360.25 C415.28220947 361.17119629 415.00191895 362.09239258 414.71313477 363.04150391 C412.50181852 370.31816882 410.31897061 377.6032611 408.13830566 384.88916016 C395.95559044 425.58257993 395.95559044 425.58257993 390.98950195 439.95800781 C389.38896298 444.6356931 388.05519609 449.35778583 386.7746582 454.13256836 C385.49303966 458.87653616 384.12352343 463.59445487 382.75 468.3125 C382.45061523 469.34141357 382.15123047 470.37032715 381.84277344 471.43041992 C379.48565137 479.47081154 376.99322811 487.46250696 374.39746094 495.42895508 C372.98498455 499.78717707 371.66840728 504.14793703 370.484375 508.57421875 C369.38532382 512.67772766 368.14048303 516.69324593 366.76806641 520.71240234 C365.31204876 525.04898383 364.01156033 529.43420908 362.6875 533.8125 C362.38263672 534.81659912 362.07777344 535.82069824 361.76367188 536.85522461 C360.31743307 541.62427976 358.87932974 546.3956241 357.45703125 551.171875 C354.56428077 560.88400797 351.56549665 570.5537734 348.46704102 580.20239258 C346.86946329 585.19787984 345.34360647 590.19735184 343.9375 595.25 C341.39099359 604.35240587 338.2983097 613.27810966 335.24121094 622.21923828 C331.91070852 631.96106639 328.84732588 641.7358861 326.09179688 651.6574707 C324.76430964 656.42220169 323.31970753 661.11752884 321.72973633 665.80102539 C320.53496682 669.40132279 319.48867968 673.04318938 318.4375 676.6875 C317.04757475 681.49414552 315.5859624 686.25364708 314 691 C312.77563366 694.9117369 311.5760566 698.83105265 310.375 702.75 C309.65634719 705.09247774 308.93759435 707.43492479 308.21875 709.77734375 C307.85136719 710.97472168 307.48398438 712.17209961 307.10546875 713.40576172 C306.04406929 716.8567164 304.97641271 720.30566028 303.90625 723.75390625 C300.4669539 734.85132452 297.08049255 745.95312323 293.98974609 757.15356445 C292.97172654 760.80252597 291.89950888 764.37228898 290.53125 767.90625 C288.6405906 772.80364621 287.24723813 777.82885196 285.8125 782.875 C283.24928497 791.77632156 280.60681004 800.64893547 277.875 809.5 C277.53525146 810.60093994 277.19550293 811.70187988 276.84545898 812.83618164 C275.43975517 817.38013721 274.02838122 821.92211978 272.59375 826.45703125 C269.95175014 834.81235582 267.48157012 843.20039962 265.14208984 851.64575195 C264.06768821 855.47906086 262.95379182 859.24325429 261.515625 862.95703125 C259.65181618 867.77598175 258.28437283 872.72026956 256.875 877.6875 C252.35964549 893.38666174 247.48947258 908.97647601 242.5625 924.55078125 C240.16925021 932.13202977 237.89933844 939.73905127 235.6875 947.375 C231.05449991 963.35573282 226.32311258 979.31715135 220.9375 995.0625 C218.57925433 1001.97566973 216.56528098 1008.95882389 214.625 1016 C209.33080785 1035.21064696 203.32650457 1054.19409148 197.14501953 1073.13598633 C194.93135418 1079.95377166 192.88462775 1086.80151124 190.93798828 1093.70019531 C189.6249017 1098.31958059 188.22391684 1102.90989773 186.8125 1107.5 C184.39631697 1115.39184451 182.0123164 1123.29257788 179.65234375 1131.20141602 C176.36037607 1142.23303583 172.99955261 1153.2353433 169.46411133 1164.19165039 C167.13454816 1171.45947697 165.0088142 1178.77776083 162.95239258 1186.12719727 C161.73879887 1190.46121537 160.43708705 1194.73364781 159 1199 C158.08548341 1201.99444139 157.20135646 1204.99785704 156.3125 1208 C154.13916698 1215.29633383 151.88682079 1222.56291026 149.5625 1229.8125 C144.21992461 1246.50160371 139.16606902 1263.27233771 134.30859375 1280.10888672 C132.95942816 1284.77448587 131.5501518 1289.3966975 130 1294 C128.77523073 1297.91160926 127.57605608 1301.83105435 126.375 1305.75 C125.65634719 1308.09247774 124.93759435 1310.43492479 124.21875 1312.77734375 C123.85136719 1313.97472168 123.48398438 1315.17209961 123.10546875 1316.40576172 C122.04406929 1319.8567164 120.97641271 1323.30566028 119.90625 1326.75390625 C116.47517578 1337.82397589 113.10185897 1348.90105055 109.98974609 1360.06567383 C108.7048032 1364.65253343 107.29857372 1369.17245491 105.77026367 1373.68383789 C104.36531079 1377.90849337 103.09798685 1382.1752925 101.8125 1386.4375 C99.2107124 1395.02809645 96.58413871 1403.61061772 93.9375 1412.1875 C91.61452385 1419.72007556 89.31325029 1427.25803251 87.0625 1434.8125 C84.22525573 1444.3326806 81.27020096 1453.81541614 78.31665039 1463.30004883 C75.93306635 1470.96432716 73.59367052 1478.63952288 71.30639648 1486.33300781 C69.12061917 1493.65815454 66.84049837 1500.9530936 64.5625 1508.25 C61.74251375 1517.28770916 58.99582305 1526.34003331 56.375 1535.4375 C53.90551769 1544.0089751 51.28156264 1552.5179879 48.54980469 1561.00927734 C46.41932352 1567.64233407 44.39047901 1574.30001522 42.40771484 1580.97851562 C40.19041074 1588.4226326 37.87797718 1595.83591766 35.5625 1603.25 C32.69628409 1612.43232879 29.91309 1621.63172922 27.25 1630.875 C24.71068353 1639.66439016 22.05303228 1648.37228537 19 1657 C18.67032227 1657.93320068 18.67032227 1657.93320068 18.33398438 1658.88525391 C10.28447833 1681.48622617 -0.53991053 1701.80621019 -13.6875 1721.875 C-14.09726074 1722.50559326 -14.50702148 1723.13618652 -14.92919922 1723.78588867 C-15.8976968 1725.22913592 -16.94141082 1726.62147211 -18 1728 C-18.66 1728 -19.32 1728 -20 1728 C-20.2475 1728.53625 -20.495 1729.0725 -20.75 1729.625 C-22.30652537 1732.5823982 -24.03435673 1735.29724051 -26 1738 C-26.66 1738 -27.32 1738 -28 1738 C-28.37125 1738.8353125 -28.37125 1738.8353125 -28.75 1739.6875 C-30.22924818 1742.42410913 -31.93467439 1744.67650869 -34 1747 C-34.66 1747 -35.32 1747 -36 1747 C-36.4021875 1747.9590625 -36.4021875 1747.9590625 -36.8125 1748.9375 C-38 1751 -38 1751 -41 1752 C-41.68486725 1753.32407669 -42.34870203 1754.65909241 -43 1756 C-45 1758.25 -45 1758.25 -47 1760 C-47.66 1760 -48.32 1760 -49 1760 C-49.33 1760.99 -49.66 1761.98 -50 1763 C-50.66 1763 -51.32 1763 -52 1763 C-52 1763.66 -52 1764.32 -52 1765 C-57.47619048 1770 -57.47619048 1770 -60 1770 C-60 1770.66 -60 1771.32 -60 1772 C-61.6796875 1773.5078125 -61.6796875 1773.5078125 -63.875 1775.125 C-64.59429688 1775.66382812 -65.31359375 1776.20265625 -66.0546875 1776.7578125 C-68 1778 -68 1778 -70 1778 C-70 1778.66 -70 1779.32 -70 1780 C-72.23046875 1781.65625 -72.23046875 1781.65625 -75.1875 1783.5 C-76.15042969 1784.1084375 -77.11335938 1784.716875 -78.10546875 1785.34375 C-80.69626696 1786.82620404 -83.20182169 1787.97690007 -86 1789 C-86 1789.66 -86 1790.32 -86 1791 C-88.90548882 1793.04169485 -90.40142046 1794 -94 1794 C-94 1794.66 -94 1795.32 -94 1796 C-96.24843864 1797.12421932 -98.49701544 1798.24815423 -100.74609375 1799.37109375 C-103.13622345 1800.56759325 -105.52400246 1801.76828292 -107.91015625 1802.97265625 C-131.53239028 1814.87900162 -155.96850707 1823.26348651 -182 1828.125 C-182.90186035 1828.29588135 -183.8037207 1828.4667627 -184.73291016 1828.64282227 C-197.73829772 1830.99900685 -210.64725881 1831.1864079 -223.82519531 1831.18530273 C-226.72996785 1831.18748495 -229.63435699 1831.20568701 -232.5390625 1831.22460938 C-243.54275951 1831.25828099 -254.12449921 1830.7215182 -265 1829 C-266.47194824 1828.78089966 -266.47194824 1828.78089966 -267.97363281 1828.55737305 C-281.35740754 1826.49022652 -294.13691984 1823.1901114 -307 1819 C-308.15242188 1818.63777344 -309.30484375 1818.27554688 -310.4921875 1817.90234375 C-327.19381274 1812.54480942 -342.73105098 1804.54025962 -358 1796 C-358 1795.34 -358 1794.68 -358 1794 C-359.07314453 1793.5978125 -359.07314453 1793.5978125 -360.16796875 1793.1875 C-363.04128939 1791.98268693 -365.63337626 1790.58762888 -368.3125 1789 C-369.63701172 1788.2265625 -369.63701172 1788.2265625 -370.98828125 1787.4375 C-371.98408203 1786.7259375 -371.98408203 1786.7259375 -373 1786 C-373 1785.34 -373 1784.68 -373 1784 C-373.763125 1783.71125 -374.52625 1783.4225 -375.3125 1783.125 C-378 1782 -378 1782 -381 1780 C-381 1779.34 -381 1778.68 -381 1778 C-381.928125 1777.5359375 -381.928125 1777.5359375 -382.875 1777.0625 C-384.25 1776.375 -385.625 1775.6875 -387 1775 C-387 1774.34 -387 1773.68 -387 1773 C-387.58934326 1772.7313916 -388.17868652 1772.4627832 -388.78588867 1772.18603516 C-391.01099408 1770.99411079 -392.58545815 1769.74022954 -394.42578125 1768.0234375 C-395.05476318 1767.43852539 -395.68374512 1766.85361328 -396.33178711 1766.25097656 C-396.98542236 1765.6319043 -397.63905762 1765.01283203 -398.3125 1764.375 C-398.98095947 1763.74561523 -399.64941895 1763.11623047 -400.33813477 1762.46777344 C-410.1029274 1753.19342805 -410.1029274 1753.19342805 -413 1749 C-413 1748.34 -413 1747.68 -413 1747 C-413.99 1746.67 -414.98 1746.34 -416 1746 C-417.82470012 1743.88794553 -419.51748205 1741.78998471 -421.1875 1739.5625 C-421.65091797 1738.96373047 -422.11433594 1738.36496094 -422.59179688 1737.74804688 C-426 1733.26568253 -426 1733.26568253 -426 1731 C-426.66 1731 -427.32 1731 -428 1731 C-429.48046875 1728.98046875 -429.48046875 1728.98046875 -431.1875 1726.1875 C-432.11949219 1724.67542969 -432.11949219 1724.67542969 -433.0703125 1723.1328125 C-433.70710938 1722.09898438 -434.34390625 1721.06515625 -435 1720 C-436.18650844 1718.18685074 -437.37398064 1716.37433173 -438.5625 1714.5625 C-442.15479741 1708.9060317 -445.1239822 1703.04625737 -448 1697 C-448.55558594 1695.85789062 -449.11117188 1694.71578125 -449.68359375 1693.5390625 C-456.62950098 1679.12207443 -462.20920342 1664.55874771 -466 1649 C-466.33773438 1647.7625 -466.67546875 1646.525 -467.0234375 1645.25 C-472.13778139 1626.43062928 -473.55392371 1607.68909712 -473.4375 1588.25 C-473.43512329 1587.20061249 -473.43274658 1586.15122498 -473.43029785 1585.07003784 C-473.37466167 1569.35326656 -472.56845065 1554.35958225 -469 1539 C-468.67109202 1537.44705473 -468.34419886 1535.89368107 -468.01953125 1534.33984375 C-465.87664391 1524.4158163 -462.97054053 1514.70201762 -460 1505 C-459.70577148 1504.03384766 -459.41154297 1503.06769531 -459.10839844 1502.07226562 C-455.28327187 1489.51900182 -451.3737015 1476.99556815 -447.36816406 1464.4987793 C-445.44584006 1458.47457145 -443.65886903 1452.43025044 -441.95703125 1446.33984375 C-440.88614414 1442.60266628 -439.73341031 1438.89418815 -438.5625 1435.1875 C-436.8968022 1429.91279029 -435.2912155 1424.62512209 -433.75 1419.3125 C-429.26181842 1403.8926532 -424.42400609 1388.56844061 -419.53735352 1373.27075195 C-417.27747621 1366.19122389 -415.14266415 1359.08999852 -413.125 1351.9375 C-408.57042454 1335.79288732 -403.54588687 1319.78936564 -398.4375 1303.8125 C-393.56955469 1288.58622806 -388.93943604 1273.2940086 -384.5 1257.9375 C-381.98688776 1249.24740393 -379.32455779 1240.61678752 -376.5546875 1232.00537109 C-374.1106851 1224.39526273 -371.79984341 1216.75031423 -369.51953125 1209.08984375 C-367.93289541 1203.76085047 -366.31150771 1198.44270251 -364.6875 1193.125 C-362.51257748 1186.00164109 -360.36090078 1178.87180046 -358.23083496 1171.7348938 C-354.7355371 1160.02475412 -351.19199768 1148.33580046 -347.453125 1136.70068359 C-345.04906208 1129.20475949 -342.77681126 1121.67357582 -340.53125 1114.12890625 C-338.87869605 1108.5784337 -337.19031544 1103.03906916 -335.5 1097.5 C-333.33484549 1090.40149998 -331.18667453 1083.2983653 -329.0625 1076.1875 C-325.78421053 1065.22537558 -322.41006801 1054.2930063 -319.03662109 1043.35986328 C-310.16220726 1014.6559291 -310.16220726 1014.6559291 -301.4765625 985.89453125 C-298.86028967 977.10936247 -296.17483685 968.35364031 -293.375 959.625 C-291.15533745 952.70284419 -289.03805482 945.77046702 -287.078125 938.76953125 C-281.34800329 918.73486658 -274.98569542 898.86505952 -268.8203125 878.9609375 C-268.46316162 877.8056958 -268.10601074 876.6504541 -267.73803711 875.46020508 C-267.06068263 873.26946785 -266.38191538 871.07916669 -265.70141602 868.8894043 C-264.20569971 864.04785338 -262.7669347 859.20394352 -261.45703125 854.30859375 C-260.36383004 850.23625514 -259.12147108 846.25057526 -257.75927734 842.26123047 C-256.34800004 838.05825605 -255.09250546 833.80690453 -253.8125 829.5625 C-251.88356785 823.18886323 -249.94809573 816.81764062 -247.9765625 810.45703125 C-244.52406945 799.31617167 -241.12180672 788.17101204 -237.98999023 776.93505859 C-236.70490848 772.34797174 -235.29865639 767.82778912 -233.77026367 763.31616211 C-232.36530967 759.09150328 -231.09808516 754.82468059 -229.8125 750.5625 C-229.19173924 748.51422197 -228.57063247 746.46604878 -227.94921875 744.41796875 C-227.62872559 743.3614209 -227.30823242 742.30487305 -226.97802734 741.21630859 C-225.37130701 735.93250087 -223.74937218 730.65340384 -222.125 725.375 C-221.63193359 723.77229248 -221.63193359 723.77229248 -221.12890625 722.13720703 C-219.31761715 716.25661314 -217.49724926 710.37892912 -215.66796875 704.50390625 C-210.63492789 688.36546347 -210.63492789 688.36546347 -205.80517578 672.16552734 C-198.95763656 648.64420102 -191.57179527 625.271594 -184.3125 601.875 C-183.92868164 600.6377417 -183.54486328 599.4004834 -183.14941406 598.12573242 C-180.0903268 588.27288893 -180.0903268 588.27288893 -178.56640625 583.45703125 C-175.84780112 574.8555429 -173.30557105 566.21244317 -170.79638672 557.54785156 C-167.64804841 546.71540466 -164.31257157 535.94260356 -160.97753906 525.16650391 C-159.43087807 520.15646567 -157.90116955 515.14131291 -156.375 510.125 C-156.08681396 509.17786133 -155.79862793 508.23072266 -155.50170898 507.25488281 C-153.6733148 501.23696109 -151.8637633 495.21358869 -150.0625 489.1875 C-146.78400238 478.22543616 -143.4100688 467.29300886 -140.03662109 456.35986328 C-133.64854693 435.65504071 -127.26801108 414.94790752 -121.0625 394.1875 C-117.78400238 383.22543616 -114.4100688 372.29300886 -111.03662109 361.35986328 C-102.16220726 332.6559291 -102.16220726 332.6559291 -93.4765625 303.89453125 C-90.57608192 294.15502278 -87.56811241 284.45844952 -84.46264648 274.78222656 C-82.91391292 269.93722809 -81.42440452 265.08915635 -80.0625 260.1875 C-71.96116661 231.39821224 -71.96116661 231.39821224 -66.75 221.1875 C-62.98755923 213.64222582 -61.89507484 205.50989727 -60.42480469 197.28222656 C-59.09979242 190.16371236 -57.12281934 183.31046068 -54.81420898 176.46118164 C-53.39997694 172.18625713 -52.11275602 167.87318055 -50.8125 163.5625 C-50.19432187 161.52334306 -49.57581972 159.48428432 -48.95703125 157.4453125 C-48.63686035 156.38989258 -48.31668945 155.33447266 -47.98681641 154.24707031 C-46.33374442 148.80771913 -44.66929111 143.37189359 -43 137.9375 C-42.66540771 136.84808105 -42.33081543 135.75866211 -41.98608398 134.63623047 C-39.8299663 127.63758195 -37.61706569 120.65901058 -35.375 113.6875 C-32.87050177 105.88693673 -30.55328856 98.04980335 -28.33496094 90.16357422 C-25.41571551 79.83526093 -22.21734405 69.59391038 -19.03662109 59.34375 C-17.32904605 53.83575477 -15.63352315 48.3240608 -13.9375 42.8125 C-13.6087085 41.74644531 -13.27991699 40.68039062 -12.94116211 39.58203125 C-11.29128507 34.2267595 -9.65589043 28.86770139 -8.046875 23.5 C-7.73371338 22.4586792 -7.42055176 21.4173584 -7.09790039 20.34448242 C-6.51024423 18.38736206 -5.92585701 16.42925578 -5.34545898 14.4699707 C-3.84564061 9.48137494 -2.16005453 4.74174133 0 0 Z " fill="#01949D" transform="translate(2294,1115)"/>
<path d="M0 0 C10.9292937 2.52094024 21.56090391 5.69470528 32.23046875 9.14453125 C45.76305028 13.51793537 59.40111314 17.55060924 73.0625 21.5 C81.75259607 24.01311224 90.38321248 26.67544221 98.99462891 29.4453125 C106.59179037 31.88515697 114.22362223 34.19242995 121.87109375 36.46875 C127.4215663 38.12130395 132.96093084 39.80968456 138.5 41.5 C145.59850002 43.66515451 152.7016347 45.81332547 159.8125 47.9375 C170.77462442 51.21578947 181.7069937 54.58993199 192.64013672 57.96337891 C221.3440709 66.83779274 221.3440709 66.83779274 250.10546875 75.5234375 C259.83763603 78.42173183 269.52731559 81.42620225 279.19580078 84.53076172 C284.25587328 86.14886587 289.32125011 87.69452652 294.4375 89.125 C306.98259352 92.66872725 318.44712376 96.93947476 330 103 C332.0196114 103.98168453 334.04040159 104.96094854 336.0625 105.9375 C342.57657586 109.19893339 349.07117792 112.75419838 355 117 C355 117.66 355 118.32 355 119 C356.32 119.33 357.64 119.66 359 120 C359 120.66 359 121.32 359 122 C359.721875 122.2475 360.44375 122.495 361.1875 122.75 C364.27606582 124.12269592 366.51011418 125.72353296 369 128 C369 128.66 369 129.32 369 130 C369.59530518 130.27078369 370.19061035 130.54156738 370.80395508 130.82055664 C372.97403559 131.98605513 374.39984624 133.14192966 376.13671875 134.87109375 C376.7100293 135.44029541 377.28333984 136.00949707 377.87402344 136.59594727 C378.4724707 137.20365967 379.07091797 137.81137207 379.6875 138.4375 C380.3052832 139.06132568 380.92306641 139.68515137 381.55957031 140.32788086 C395.34983305 154.41457316 395.34983305 154.41457316 398 162 C398.66 162 399.32 162 400 162 C401.29345703 163.74975586 401.29345703 163.74975586 402.7578125 166.21484375 C403.29720459 167.12008789 403.83659668 168.02533203 404.39233398 168.95800781 C404.96411377 169.94124023 405.53589355 170.92447266 406.125 171.9375 C407.00297241 173.44135254 407.00297241 173.44135254 407.89868164 174.97558594 C418.34753835 193.09059017 425.72572361 211.48921061 430 232 C430.27263672 233.08861328 430.27263672 233.08861328 430.55078125 234.19921875 C435.82697972 255.34428895 436.11357562 279.67502211 432 301 C431.84934082 301.7852002 431.69868164 302.57040039 431.54345703 303.37939453 C428.67564955 317.83413601 424.45201265 331.81280785 419.99658203 345.84521484 C418.48316076 350.63610894 417.02081487 355.44209829 415.5625 360.25 C415.28220947 361.17119629 415.00191895 362.09239258 414.71313477 363.04150391 C412.50181852 370.31816882 410.31897061 377.6032611 408.13830566 384.88916016 C395.95559044 425.58257993 395.95559044 425.58257993 390.98950195 439.95800781 C389.38896298 444.6356931 388.05519609 449.35778583 386.7746582 454.13256836 C385.49303966 458.87653616 384.12352343 463.59445487 382.75 468.3125 C382.45061523 469.34141357 382.15123047 470.37032715 381.84277344 471.43041992 C379.48565137 479.47081154 376.99322811 487.46250696 374.39746094 495.42895508 C372.98498455 499.78717707 371.66840728 504.14793703 370.484375 508.57421875 C369.38532382 512.67772766 368.14048303 516.69324593 366.76806641 520.71240234 C365.31204876 525.04898383 364.01156033 529.43420908 362.6875 533.8125 C362.38263672 534.81659912 362.07777344 535.82069824 361.76367188 536.85522461 C360.31743307 541.62427976 358.87932974 546.3956241 357.45703125 551.171875 C354.56428077 560.88400797 351.56549665 570.5537734 348.46704102 580.20239258 C346.86946329 585.19787984 345.34360647 590.19735184 343.9375 595.25 C342.38272491 600.79603755 340.66873965 606.2775007 338.875 611.75 C338.49396118 612.93190918 338.49396118 612.93190918 338.10522461 614.13769531 C336.23626738 619.76373262 336.23626738 619.76373262 334 622 C305.38645732 613.43494466 276.8176772 604.73196806 248.27734375 595.92578125 C237.65960741 592.65150052 227.03734175 589.39599445 216.39160156 586.21386719 C207.25357334 583.48165191 198.12954708 580.70417087 189.00830078 577.91650391 C186.01635942 577.00498403 183.02205797 576.10158177 180.02734375 575.19921875 C140.10559004 563.12055689 101.35807152 550.49068229 67 526 C66.31599121 525.52062988 65.63198242 525.04125977 64.92724609 524.54736328 C55.7958621 518.14507763 47.10286192 511.67719563 39 504 C37.69341178 502.84743004 36.38104918 501.70136713 35.0625 500.5625 C20.26263587 487.6201087 20.26263587 487.6201087 14.78515625 481.09375 C12.72316237 478.67530642 10.54957502 476.3801851 8.375 474.0625 C-18.62610926 444.39410791 -39.64755529 407.06982959 -52 369 C-52.26522461 368.19433594 -52.53044922 367.38867188 -52.80371094 366.55859375 C-59.79353102 345.14496435 -64.38921755 323.37104342 -67 301 C-67.09643799 300.19997559 -67.19287598 299.39995117 -67.29223633 298.57568359 C-68.22578991 289.81873489 -68.19946268 281.04544928 -68.1875 272.25 C-68.18689575 271.42953186 -68.1862915 270.60906372 -68.18566895 269.76373291 C-68.1590504 256.41777723 -67.69750115 243.25131535 -66 230 C-65.86045898 228.89946289 -65.72091797 227.79892578 -65.57714844 226.66503906 C-63.86458529 213.51357219 -61.8854018 200.70050312 -58 188 C-57.39429964 185.83376158 -56.79017929 183.66708086 -56.1875 181.5 C-53.24775694 171.29668946 -50.11205533 161.15174991 -47 151 C-46.67451172 149.93571777 -46.34902344 148.87143555 -46.01367188 147.77490234 C-42.53193766 136.39113046 -39.01965504 125.02024161 -35.375 113.6875 C-32.87050177 105.88693673 -30.55328856 98.04980335 -28.33496094 90.16357422 C-25.41571551 79.83526093 -22.21734405 69.59391038 -19.03662109 59.34375 C-17.32904605 53.83575477 -15.63352315 48.3240608 -13.9375 42.8125 C-13.6087085 41.74644531 -13.27991699 40.68039062 -12.94116211 39.58203125 C-11.29128507 34.2267595 -9.65589043 28.86770139 -8.046875 23.5 C-7.73371338 22.4586792 -7.42055176 21.4173584 -7.09790039 20.34448242 C-6.51024423 18.38736206 -5.92585701 16.42925578 -5.34545898 14.4699707 C-3.84564061 9.48137494 -2.16005453 4.74174133 0 0 Z " fill="#FCBF39" transform="translate(2294,1115)"/>
</svg>
