<?xml version="1.0" encoding="UTF-8"?>
<svg version="1.1" xmlns="http://www.w3.org/2000/svg" width="4096" height="3276">
<path d="M0 0 C0.66168041 -0.00226556 1.32336082 -0.00453111 2.00509214 -0.00686532 C4.21593708 -0.01317992 6.4267203 -0.01237751 8.63757324 -0.0115509 C10.22670572 -0.0145446 11.81583747 -0.01794762 13.40496826 -0.02172852 C17.7246673 -0.03056665 22.04434652 -0.03290699 26.36405373 -0.0335443 C29.07578866 -0.03425668 31.78751862 -0.03639491 34.49925232 -0.03904152 C43.99913855 -0.04830517 53.49901077 -0.05237648 62.99890137 -0.05158997 C71.78315047 -0.05099387 80.56733722 -0.06145011 89.35157061 -0.07733363 C96.93677823 -0.09054815 104.52196589 -0.09576789 112.10718489 -0.09513456 C116.61681269 -0.09488294 121.12638548 -0.09754141 125.63600159 -0.10831261 C195.83964264 -0.26395946 195.83964264 -0.26395946 227.29187012 11.13371277 C229.09591309 11.77759949 229.09591309 11.77759949 230.93640137 12.43449402 C246.72023408 18.40175772 261.4364638 26.14911992 274.29187012 37.13371277 C275.26769043 37.95871277 276.24351074 38.78371277 277.24890137 39.63371277 C294.14166201 54.42354425 304.1335504 72.10434983 309.97937012 93.57121277 C310.1820752 94.30944275 310.38478027 95.04767273 310.59362793 95.80827332 C313.80542381 108.21175714 314.67304846 120.63029205 314.60437012 133.38371277 C314.60221497 134.10771271 314.60005981 134.83171265 314.59783936 135.57765198 C314.54497646 146.66679002 314.07055154 157.35579695 311.29187012 168.13371277 C310.98587891 169.35187683 310.98587891 169.35187683 310.67370605 170.59465027 C303.00793754 200.3204251 284.26836113 223.62648499 258.07263184 239.47648621 C253.53373645 242.1325015 248.93397514 244.6632101 244.29187012 247.13371277 C249.89829431 258.89701008 256.30961156 270.1758481 262.77624512 281.48283386 C264.08782267 283.77682694 265.39460046 286.0734169 266.69812012 288.37199402 C269.44878769 293.2136754 272.22673686 298.0325155 275.10827637 302.79777527 C278.45619033 308.36479465 281.63267598 314.02051811 284.79187012 319.69621277 C286.02217577 321.90203291 287.25264954 324.10775929 288.48327637 326.31340027 C289.10992188 327.4371405 289.73656738 328.56088074 290.38220215 329.71867371 C292.2694456 333.09361125 294.16743973 336.46225755 296.06921387 339.82902527 C301.51169821 349.4760194 306.87466292 359.09040198 311.70593262 369.05949402 C314.03759701 373.57924741 316.73929111 377.82721531 319.49499512 382.09855652 C322.92154225 387.88644157 324.95863015 392.3135766 323.94421387 398.98136902 C322.85372661 402.57932399 320.96947574 404.5214146 318.29187012 407.13371277 C315.02855312 408.76537127 311.42544013 408.29910972 307.83825684 408.31071472 C306.9632402 408.31728592 306.08822357 408.32385712 305.18669128 408.33062744 C302.2816459 408.35038782 299.37665236 408.36203121 296.47155762 408.37199402 C294.98334188 408.37810731 294.98334188 408.37810731 293.46506119 408.3843441 C288.21039283 408.40521989 282.95575068 408.41951316 277.7010498 408.42887878 C272.28053949 408.43992595 266.86044164 408.47430209 261.44007683 408.51405048 C257.26723484 408.54023999 253.09449058 408.54857287 248.92157364 408.55216026 C246.92415721 408.55702283 244.92674504 408.56862738 242.92940903 408.58719826 C240.12656129 408.61163151 237.32477295 408.61061662 234.52185059 408.60368347 C233.29333122 408.62289856 233.29333122 408.62289856 232.03999329 408.64250183 C225.40476262 408.58295915 220.07641673 406.74218961 215.18371582 402.15885925 C211.00429097 396.44010303 207.63645056 390.53208673 204.47937012 384.19621277 C201.01174658 377.32454693 197.42441377 370.54831757 193.65124512 363.84074402 C187.56105388 352.9793501 181.96873683 341.87124373 176.35437012 330.75871277 C168.5041211 315.13496886 168.5041211 315.13496886 160.20883179 299.74571228 C154.01820044 288.62860693 148.82045205 277.74373482 143.29187012 266.13371277 C124.15187012 265.80371277 105.01187012 265.47371277 85.29187012 265.13371277 C85.3266748 274.59285339 85.36147949 284.05199402 85.39733887 293.79777527 C85.41266529 299.78605897 85.42723112 305.77432848 85.43835449 311.76261902 C85.45615642 321.26999261 85.47708593 330.77728645 85.51818848 340.28459167 C85.54810878 347.2086723 85.56744937 354.13268824 85.5741356 361.05683172 C85.57804342 364.72245949 85.58721502 368.3879022 85.60906029 372.05347061 C85.63326078 376.14752124 85.63383842 380.24125099 85.63244629 384.33537292 C85.64323212 385.54809875 85.65401794 386.76082458 85.66513062 388.01029968 C85.63677584 395.70348102 85.0474446 400.18389961 79.6448822 405.96728516 C75.40150104 408.70899258 72.58113772 408.84997231 67.64367676 408.79655457 C66.79573044 408.80692245 65.94778412 408.81729034 65.07414246 408.82797241 C62.28293873 408.85498294 59.49331295 408.84539347 56.70202637 408.83293152 C54.75438501 408.83884297 52.80674728 408.84609076 50.8591156 408.85461426 C46.7812504 408.86648461 42.70393135 408.85980375 38.62609863 408.84049988 C33.40921638 408.81762283 28.19396395 408.84438478 22.97724247 408.88556194 C18.95618184 408.91118102 14.935509 408.90854874 10.91439629 408.89766884 C8.99152586 408.8961853 7.06862526 408.9038357 5.14583015 408.92091942 C2.45271158 408.94096291 -0.2375533 408.92244215 -2.93054199 408.89421082 C-3.71881378 408.90792725 -4.50708557 408.92164368 -5.31924438 408.93577576 C-10.68004591 408.82388986 -13.45733113 407.33577689 -17.38781071 403.71244526 C-20.18146842 400.37201191 -19.83516403 396.85499221 -19.83955765 392.70337868 C-19.84161028 392.04463776 -19.84366292 391.38589685 -19.84577775 390.70719409 C-19.85146379 388.48432769 -19.84998853 386.26152293 -19.84857178 384.03865051 C-19.85115449 382.43507674 -19.85416738 380.83150361 -19.85757518 379.22793138 C-19.86565936 374.80914706 -19.86743554 370.39037897 -19.86817265 365.97158813 C-19.87002071 361.21076011 -19.87756674 356.44994057 -19.88430786 351.68911743 C-19.89790123 341.27400342 -19.90391731 330.85889325 -19.90831852 320.44377184 C-19.91107894 313.94417139 -19.9153159 307.44457243 -19.91982269 300.94497299 C-19.93201609 282.95947424 -19.94231564 264.97397669 -19.94569778 246.98847389 C-19.94591735 245.83693629 -19.94613692 244.68539868 -19.94636314 243.498966 C-19.94658141 242.34463283 -19.94679969 241.19029966 -19.94702458 240.0009867 C-19.94746805 237.66176518 -19.94791462 235.32254366 -19.94836426 232.98332214 C-19.94858569 231.82298105 -19.94880712 230.66263996 -19.94903526 229.46713702 C-19.9529851 210.65632897 -19.97044449 191.84555961 -19.99372378 173.03476651 C-20.01741581 153.73516405 -20.02989864 134.43558104 -20.0310657 115.1359638 C-20.03198361 104.29458152 -20.03776513 93.45324967 -20.05588531 82.61188126 C-20.07125726 73.38211271 -20.07642396 64.15241018 -20.06814721 54.92263128 C-20.06423053 50.21117131 -20.06521978 45.49984439 -20.07920456 40.78840065 C-20.09188249 36.47792882 -20.09080009 32.16769085 -20.07861385 27.85721962 C-20.07664621 26.29531728 -20.07978413 24.73339872 -20.08845821 23.17151923 C-20.09948351 21.05263618 -20.09211131 18.93458834 -20.08006668 16.81572914 C-20.08066377 15.63756429 -20.08126086 14.45939945 -20.08187604 13.24553263 C-19.52303657 8.59262125 -17.68408047 6.05829754 -14.33312988 2.88371277 C-9.80833254 -0.13281879 -5.32992779 0.00755765 0 0 Z M85.29187012 83.13371277 C85.29187012 115.80371277 85.29187012 148.47371277 85.29187012 182.13371277 C96.71812012 182.17496277 108.14437012 182.21621277 119.91687012 182.25871277 C123.49611328 182.27692078 127.07535645 182.29512878 130.76306152 182.31388855 C134.0320263 182.32058621 134.0320263 182.32058621 137.30099487 182.32460022 C138.73289237 182.32762837 140.16478547 182.33457042 141.59664917 182.34486389 C159.80042926 182.46894029 178.48854813 181.50398936 192.29187012 168.13371277 C202.71706747 157.3708572 205.70828946 143.7855935 205.56530762 129.21574402 C204.9042815 115.51417798 199.2687671 102.9930162 189.22937012 93.62590027 C178.44397994 85.31941025 164.85897353 82.99746773 151.59069824 83.02018738 C150.85623222 83.02006684 150.1217662 83.01994631 149.36504364 83.01982212 C147.01770359 83.02056089 144.67044572 83.0281412 142.32312012 83.03605652 C140.86185748 83.03752916 139.40059432 83.03854788 137.93933105 83.03910828 C132.55683596 83.04432387 127.17435221 83.05828511 121.79187012 83.07121277 C109.74687012 83.09183777 97.70187012 83.11246277 85.29187012 83.13371277 Z " fill="#4D4D4D" transform="translate(1110.7081298828125,1342.8662872314453)"/>
<path d="M0 0 C0.95390625 0.47953125 1.9078125 0.9590625 2.890625 1.453125 C15.71374964 8.36821316 24.96246487 18.06250926 32.9765625 30.06640625 C34.54520603 32.34063654 35.95742203 34.17208787 38 36 C38.33773437 35.4946875 38.67546875 34.989375 39.0234375 34.46875 C39.46945312 33.8190625 39.91546875 33.169375 40.375 32.5 C41.03628906 31.52546875 41.03628906 31.52546875 41.7109375 30.53125 C42.13632813 30.0259375 42.56171875 29.520625 43 29 C43.66 29 44.32 29 45 29 C45.25394531 28.42378906 45.50789063 27.84757812 45.76953125 27.25390625 C54.7744916 10.75910587 78.74785788 -1.0998477 96 -6.375 C125.95537712 -14.99454197 158.30265685 -12.19312436 185.79418945 2.8269043 C191.7316183 6.24630267 196.93799069 10.38922329 202 15 C202.68191406 15.60070313 203.36382813 16.20140625 204.06640625 16.8203125 C213.48462989 25.61065456 221.58416561 36.89679943 226 49 C226.4014624 50.05405029 226.4014624 50.05405029 226.81103516 51.12939453 C235.96445723 75.38721008 238.14497273 100.10258622 238.16113281 125.81811523 C238.16577336 127.56249595 238.17079963 129.30687568 238.17617798 131.05125427 C238.1891704 135.74496008 238.19571889 140.43865169 238.20018864 145.13237262 C238.20313606 148.06961996 238.2072435 151.00686354 238.21169281 153.94410896 C238.22532248 163.14966544 238.23501562 172.35521318 238.2388947 181.56077904 C238.24338817 192.16210953 238.26101457 202.76331192 238.2898953 213.36460346 C238.31150691 221.58403804 238.32159842 229.80343652 238.32293582 238.02289921 C238.32398264 242.92295956 238.32986659 247.82289872 238.34775543 252.722929 C238.36423085 257.32364939 238.36639424 261.92415725 238.35761642 266.52489662 C238.35684623 268.2103215 238.36118649 269.89575782 238.37107468 271.58115387 C238.3838029 273.88597418 238.3779136 276.19004221 238.36749268 278.49485779 C238.36895924 279.78285499 238.3704258 281.07085218 238.3719368 282.3978796 C237.82177495 287.72606772 236.4600899 291.64674595 232.4375 295.375 C228.36940326 298.0870645 225.39418015 298.15920989 220.61621094 298.17700195 C219.85502457 298.18357315 219.0938382 298.19014435 218.30958557 298.19691467 C215.78451442 298.216663 213.25950282 298.22831456 210.734375 298.23828125 C209.87212563 298.24235678 209.00987625 298.2464323 208.12149811 298.25063133 C203.55642434 298.27150012 198.9913807 298.28579747 194.42626953 298.29516602 C189.71400852 298.30622314 185.00222068 298.34061246 180.2901268 298.38033772 C176.66466402 298.40650417 173.03931386 298.41485794 169.41376495 298.41844749 C167.67705342 298.42331458 165.94034697 298.43493208 164.20372772 298.45348549 C161.76922846 298.47787482 159.33595162 298.47691257 156.90136719 298.4699707 C155.83037529 298.48918579 155.83037529 298.48918579 154.73774719 298.50878906 C149.69439037 298.4565261 146.82973728 297.24605227 143 294 C139.97530175 289.94770603 139.62281379 286.96884323 139.61473083 281.96315002 C139.60949514 281.26638482 139.60425944 280.56961961 139.59886509 279.8517403 C139.58492477 277.52280888 139.59219968 275.19443339 139.59936523 272.86547852 C139.59362122 271.19289153 139.58653783 269.52030869 139.57821655 267.84773254 C139.5631052 264.24697086 139.55732911 260.64635742 139.55874443 257.04556465 C139.56078072 251.34099752 139.54119013 245.63662878 139.51856995 239.93211365 C139.47758048 228.83840091 139.45900186 217.7447037 139.44239807 206.65093231 C139.4200556 192.56309982 139.38627023 178.47531353 139.33519894 164.38755554 C139.31538838 158.72891 139.3057046 153.07036778 139.30424678 147.41168892 C139.30147441 143.87212906 139.29059561 140.3326251 139.27773666 136.79308891 C139.27349698 135.16545003 139.27256952 133.53779817 139.27541161 131.91015625 C139.30340192 113.78453364 138.52775036 94.12448097 125.33984375 80.25390625 C116.09232548 71.80685653 105.4731152 69.52152812 93.20703125 69.75 C83.99673802 70.46797657 74.33986869 74.14767759 67.875 80.9375 C57.3299631 94.39862253 55.70125116 108.73169628 55.71289062 125.15869141 C55.70685907 126.89248473 55.69993297 128.62627514 55.69218445 130.36006165 C55.67734986 134.07914711 55.66856001 137.79817938 55.66447449 141.51729202 C55.6577363 147.40085412 55.6359546 153.28430272 55.61193848 159.16781616 C55.55891511 172.71522144 55.52544163 186.26266163 55.49217987 199.81012726 C55.46147527 212.23631587 55.42662431 224.6624555 55.37586927 237.08858049 C55.35255581 242.93482032 55.33878875 248.78098064 55.33237457 254.62726235 C55.32642918 258.26481779 55.31232745 261.90230878 55.29603004 265.53983116 C55.29016325 267.22362492 55.28767992 268.90743446 55.28886986 270.59123802 C55.29003313 272.89402047 55.27898007 275.19644266 55.26501465 277.49917603 C55.26208153 278.78629297 55.25914841 280.07340992 55.2561264 281.39953041 C54.90137897 286.38635459 54.14725311 291.70354733 50.51196289 295.39208984 C44.352631 300.14796839 35.20378831 298.81101756 27.80859375 298.7265625 C26.01693219 298.72552417 24.22526833 298.72656394 22.43360901 298.72958374 C18.68691795 298.72940474 14.94109162 298.708639 11.19458008 298.67236328 C6.4004749 298.6269553 1.60762994 298.62591062 -3.1866312 298.63939857 C-6.88338862 298.64609178 -10.57986046 298.63279335 -14.27656364 298.61314011 C-16.04392946 298.60546165 -17.81132711 298.60312907 -19.57870674 298.6063118 C-22.0512117 298.60705642 -24.52212053 298.58172897 -26.99438477 298.54931641 C-27.71922562 298.55427124 -28.44406647 298.55922607 -29.19087219 298.56433105 C-34.24792308 298.45890402 -37.19308468 297.3160512 -41 294 C-43.79049768 289.43545915 -44.37426058 286.0172764 -44.37181091 280.70449829 C-44.37563548 279.99195558 -44.37946004 279.27941287 -44.3834005 278.54527795 C-44.39265102 276.16881776 -44.38071578 273.7929455 -44.36889648 271.41650391 C-44.37136578 269.70760863 -44.3752055 267.99871487 -44.38031006 266.28982544 C-44.38864061 262.6132261 -44.38784637 258.9367817 -44.38012505 255.26018143 C-44.36851536 249.433178 -44.3807296 243.60637256 -44.39674377 237.77938843 C-44.43290267 223.29820962 -44.43917747 208.81703529 -44.43664551 194.33581543 C-44.43492925 183.09420577 -44.4422176 171.85275858 -44.47662407 160.61119401 C-44.49331393 154.83340476 -44.49171233 149.05601317 -44.47580135 143.27822614 C-44.46995333 139.66095081 -44.48083619 136.04385887 -44.49604797 132.42661667 C-44.49973586 130.76594881 -44.4967792 129.1052487 -44.48617744 127.4446106 C-44.39008515 111.29890503 -46.85580607 96.31939124 -56.25 82.75 C-64.63855494 74.36144506 -75.1060773 69.97135757 -87 69.5 C-97.78256901 69.94097578 -108.10792903 73.51086927 -116 81 C-128.54943453 96.51785847 -129.30789019 115.24155228 -129.25537109 134.28320312 C-129.2581281 135.97009448 -129.26181227 137.65698454 -129.26634216 139.34387207 C-129.27438878 142.94610861 -129.27663943 146.54828334 -129.27439499 150.15052795 C-129.2715401 155.84938546 -129.28599098 161.54812123 -129.30337524 167.24694824 C-129.35020677 183.4413068 -129.37436135 199.63565473 -129.38085938 215.83007812 C-129.38460905 224.79718064 -129.40261977 233.76414301 -129.43595374 242.73118544 C-129.45614989 248.39465999 -129.45854841 254.05777281 -129.44767356 259.72126865 C-129.44506699 263.23973871 -129.45906562 266.75799763 -129.47775459 270.27641296 C-129.48307628 271.90580476 -129.48158016 273.53523543 -129.47271919 275.16461182 C-129.461587 277.39121095 -129.47503918 279.61638329 -129.49447632 281.84289551 C-129.49556585 283.08756844 -129.49665539 284.33224136 -129.49777794 285.61463165 C-130.2298835 290.54959404 -132.42847484 293.70804277 -136.25001526 296.8497467 C-139.85272494 298.35667459 -143.15930789 298.42743565 -146.99975586 298.40405273 C-147.79064102 298.41091599 -148.58152618 298.41777924 -149.39637756 298.42485046 C-152.00271718 298.44310555 -154.6084541 298.43928286 -157.21484375 298.43359375 C-159.03178604 298.43815624 -160.84872661 298.44346202 -162.66566467 298.44947815 C-166.4711102 298.45840676 -170.27634583 298.45598906 -174.08178711 298.44604492 C-178.95208337 298.4345567 -183.82165443 298.4547656 -188.69185543 298.48396206 C-192.44345176 298.50233177 -196.19487456 298.50203005 -199.94650459 298.49632454 C-201.74180684 298.49617141 -203.53712092 298.50220862 -205.33238029 298.51461601 C-207.84566255 298.52953873 -210.3576084 298.5188404 -212.87084961 298.50170898 C-213.60818329 298.51137695 -214.34551697 298.52104492 -215.10519409 298.53100586 C-220.21008993 298.45835247 -223.19958387 297.41279745 -227 294 C-230.4208032 287.89463271 -230.42412126 282.42592025 -230.38095093 275.53074646 C-230.3856309 274.38152067 -230.39031087 273.23229488 -230.39513266 272.04824406 C-230.40709072 268.20058344 -230.3976219 264.35327845 -230.38818359 260.50561523 C-230.3905987 257.74587266 -230.39748209 254.98614514 -230.40411377 252.22640991 C-230.41744272 245.51094774 -230.41457725 238.79558624 -230.40587585 232.08012014 C-230.39909697 226.6221872 -230.39818346 221.16428245 -230.4014473 215.70634651 C-230.401907 214.92915077 -230.40236669 214.15195503 -230.40284032 213.3512079 C-230.40379951 211.77229602 -230.40477215 210.19338414 -230.4057581 208.61447228 C-230.41430939 193.81481731 -230.40448167 179.01521812 -230.388357 164.21557231 C-230.3749514 151.51844281 -230.37728439 138.82139559 -230.39111328 126.12426758 C-230.40716915 111.37553095 -230.41348822 96.62684317 -230.40427649 81.87809902 C-230.40332085 80.30534526 -230.40237774 78.7325915 -230.4014473 77.15983772 C-230.40098447 76.38603192 -230.40052164 75.61222613 -230.40004479 74.81497167 C-230.39745512 69.36346178 -230.40182535 63.91198291 -230.40888596 58.46047783 C-230.41730111 51.81718056 -230.41502042 45.17398964 -230.39904372 38.53070455 C-230.39116157 35.14158212 -230.38806836 31.75263696 -230.39799118 28.36351585 C-230.40616688 24.68958936 -230.3959324 21.01616429 -230.38095093 17.3422699 C-230.38764309 16.27116531 -230.39433526 15.20006073 -230.40123022 14.09649843 C-230.35806087 8.6531047 -230.12962593 4.66947485 -227 0 C-222.13928952 -4.49615719 -218.67749554 -5.12573768 -212.17700195 -5.17700195 C-211.48715714 -5.18357315 -210.79731232 -5.19014435 -210.08656311 -5.19691467 C-207.80380132 -5.21662151 -205.52110533 -5.22830624 -203.23828125 -5.23828125 C-202.06586915 -5.24439454 -202.06586915 -5.24439454 -200.86977196 -5.25063133 C-196.73032268 -5.27148395 -192.59090644 -5.28578744 -188.45141602 -5.29516602 C-184.18887983 -5.30621069 -179.92686852 -5.34058996 -175.6645174 -5.38033772 C-172.37610446 -5.4065664 -169.0878152 -5.41486351 -165.79930687 -5.41844749 C-164.22891902 -5.4232997 -162.65853618 -5.43487458 -161.08825111 -5.45348549 C-145.73147155 -5.62413592 -145.73147155 -5.62413592 -139 -1 C-134.73353834 4.36748403 -134.79612149 10.7338533 -134.4375 17.3125 C-134.39431641 18.05306641 -134.35113281 18.79363281 -134.30664062 19.55664062 C-134.20129568 21.37091464 -134.10021684 23.1854355 -134 25 C-133.28457031 24.23816406 -132.56914062 23.47632813 -131.83203125 22.69140625 C-120.46232099 10.81156623 -107.90412698 2.79937253 -93 -4 C-92.10152344 -4.4228125 -91.20304687 -4.845625 -90.27734375 -5.28125 C-63.34813324 -16.54798784 -25.475869 -13.10608289 0 0 Z " fill="#4E4E4E" transform="translate(2846,1453)"/>
<path d="M0 0 C1.14243668 -0.01029488 1.14243668 -0.01029488 2.30795288 -0.02079773 C4.81690294 -0.03904705 7.32522655 -0.03523099 9.83422852 -0.02954102 C11.58391014 -0.0341038 13.33358998 -0.03940966 15.08326721 -0.04542542 C18.74748014 -0.05435289 22.41147508 -0.05193766 26.07568359 -0.04199219 C30.76438798 -0.03050425 35.45233905 -0.05071285 40.14094448 -0.07990932 C43.75357316 -0.09828232 47.36602169 -0.09797667 50.97868538 -0.0922718 C52.70700194 -0.09211872 54.43533082 -0.09815271 56.16360283 -0.11056328 C58.58350332 -0.12549234 61.002017 -0.11478338 63.421875 -0.09765625 C64.4857972 -0.1121582 64.4857972 -0.1121582 65.57121277 -0.12695312 C70.58321895 -0.05291712 73.39181602 1.30335691 77.27563477 4.40405273 C81.60538147 9.18170427 81.42564387 14.00711437 81.43385315 20.21209717 C81.44126012 21.39941213 81.44126012 21.39941213 81.44881672 22.61071324 C81.46418602 25.26545711 81.47255081 27.9201768 81.48095703 30.57495117 C81.490536 32.476997 81.50054609 34.37904069 81.51095581 36.28108215 C81.53800889 41.44802227 81.5590163 46.61497152 81.5789578 51.78194332 C81.60081483 57.18051255 81.62820491 62.5790536 81.65501404 67.9776001 C81.70494473 78.20204123 81.74988218 88.42649801 81.7930364 98.65096974 C81.84240554 110.29052109 81.89732488 121.93004416 81.95271599 133.56956816 C82.06654182 157.51436997 82.17337958 181.45919891 82.27563477 205.40405273 C84.03794045 203.48662047 85.79955881 201.56856438 87.56079102 199.65014648 C88.05663696 199.11079468 88.55248291 198.57144287 89.06335449 198.01574707 C91.65038436 195.19675437 94.21316522 192.36358118 96.71313477 189.46655273 C100.29500785 185.33494373 104.01401435 181.33475347 107.73022461 177.32446289 C110.79135892 174.01881988 113.82981428 170.69553303 116.83813477 167.34155273 C120.21656513 163.57543364 123.61228043 159.82600205 127.02563477 156.09155273 C128.34821289 154.64329102 128.34821289 154.64329102 129.69750977 153.16577148 C132.16901576 150.51826431 134.71284485 147.96273561 137.27563477 145.40405273 C141.93805378 140.41832729 146.39209875 135.30117043 150.65063477 129.96655273 C153.90921407 125.9686797 157.26322859 122.11865219 160.83813477 118.40405273 C161.68504883 117.51717773 162.53196289 116.63030273 163.40454102 115.71655273 C169.45220257 110.84551105 175.57986782 109.95716435 183.07495117 110.01586914 C183.91504227 110.01061218 184.75513336 110.00535522 185.62068176 109.99993896 C188.37304767 109.98683014 191.1248264 109.99544285 193.87719727 110.00561523 C195.80195221 110.00359226 197.72670641 110.00067895 199.65145874 109.99691772 C203.6743707 109.99250705 207.69708214 109.99888629 211.7199707 110.01293945 C216.86919881 110.03005363 222.01795852 110.02016801 227.16716957 110.00222206 C231.13749711 109.99136991 235.10771398 109.99483675 239.07804489 110.00260544 C240.97660757 110.00460229 242.8751804 110.00216632 244.77373123 109.99516678 C247.42779342 109.98752617 250.08110125 109.99919185 252.73510742 110.01586914 C253.51448166 110.00979645 254.2938559 110.00372375 255.09684753 109.99746704 C259.90350529 110.05326611 263.19630925 110.85176631 267.27563477 113.40405273 C271.2894042 117.7346987 271.71816204 121.28428639 271.70922852 126.93920898 C270.82741043 131.95206673 267.6149858 135.30593301 264.07250977 138.76733398 C262.84854492 139.97486328 262.84854492 139.97486328 261.59985352 141.20678711 C260.75036133 142.03500977 259.90086914 142.86323242 259.02563477 143.71655273 C253.81944975 148.81410792 248.72547744 153.91134153 243.98266602 159.4453125 C240.90482362 162.97699579 237.63538184 166.32923427 234.40063477 169.71655273 C229.23940473 175.1551482 224.33452423 180.6698053 219.66625977 186.54077148 C214.75087057 192.42799416 209.37176081 197.90682774 204.09643555 203.4699707 C201.97629175 205.7220194 199.8917729 208.00432433 197.81079102 210.29248047 C191.85024956 216.8402013 185.64004267 223.11166049 179.32495117 229.31787109 C170.66711936 237.50882865 170.66711936 237.50882865 164.27563477 247.40405273 C164.9652832 248.21487305 165.65493164 249.02569336 166.36547852 249.86108398 C172.41195405 256.9813339 178.38173738 264.15658397 184.27563477 271.40405273 C186.81843993 274.51886889 189.36494394 277.63062733 191.91381836 280.74047852 C192.90735095 281.95416283 193.89970267 283.1688141 194.89135742 284.3840332 C203.18263677 294.60875132 203.18263677 294.60875132 211.90063477 304.46655273 C216.20042646 309.14854814 219.91849964 314.19120296 223.6875 319.29956055 C227.80818966 324.85663481 232.17564397 330.14200624 236.68579102 335.38452148 C240.63439958 339.98825365 244.44915769 344.69880063 248.27563477 349.40405273 C250.41499092 352.02466292 252.55675051 354.64325414 254.70141602 357.25952148 C256.66336865 359.65293111 258.61653379 362.05335889 260.56860352 364.45483398 C266.80979941 372.10771871 273.11227345 379.58427703 279.97094727 386.69311523 C283.30374358 390.61338752 286.86709954 395.0815639 286.77563477 400.46655273 C286.11997081 405.62990641 284.24429297 408.34709916 280.70248413 412.04776001 C276.9697733 414.13385922 273.40375206 413.82179299 269.19604492 413.79223633 C267.81974159 413.80012177 267.81974159 413.80012177 266.41563416 413.8081665 C263.38181544 413.82137237 260.34852135 413.81262477 257.31469727 413.80249023 C255.20486348 413.80451115 253.09503037 413.80742273 250.98519897 413.81118774 C246.56176101 413.81561219 242.13850474 413.80917736 237.71508789 413.79516602 C232.05009768 413.77809514 226.38553452 413.78790141 220.72056007 413.80588341 C216.36248573 413.8167358 212.00451221 413.81326783 207.64643478 413.80550003 C205.55807825 413.80350097 203.46971252 413.80594697 201.38136673 413.81293869 C198.45867002 413.82057463 195.53665942 413.80891771 192.61401367 413.79223633 C191.75354935 413.79830902 190.89308502 413.80438171 190.00654602 413.81063843 C181.59679703 413.72191184 176.092858 410.245166 170.27563477 404.40405273 C168.02833797 401.80708168 165.87405856 399.15150148 163.73266602 396.46655273 C161.11687771 393.20617431 158.4262578 390.02073084 155.71313477 386.84155273 C151.8394261 382.28828109 148.06938294 377.6690708 144.35766602 372.98217773 C141.94479385 369.99438106 139.45767397 367.07349076 136.96313477 364.15405273 C133.15818924 359.6976564 129.48774416 355.16226667 125.90063477 350.52905273 C121.44523346 344.78369749 116.76419426 339.27309096 111.97583008 333.8034668 C108.06481473 329.33273547 104.27294042 324.78149274 100.53344727 320.16577148 C97.02900695 315.8791983 93.43879095 311.6661942 89.85375977 307.44702148 C87.31114961 304.44597101 84.79199688 301.42710196 82.27563477 298.40405273 C82.2668354 300.31632408 82.2668354 300.31632408 82.25785828 302.26722717 C82.2006166 314.28826126 82.12784711 326.30911469 82.03991985 338.32996464 C81.99521461 344.50983943 81.95595857 350.68964828 81.92919922 356.86962891 C81.90316816 362.83494469 81.86276651 368.8000067 81.8124485 374.76516533 C81.79577858 377.03966551 81.7842651 379.31420959 81.77802086 381.58876228 C81.76838144 384.7775437 81.74032287 387.96567568 81.70800781 391.15429688 C81.71016045 392.56123558 81.71016045 392.56123558 81.71235657 393.99659729 C81.63286011 399.55253793 80.94121373 403.49471423 78.27563477 408.40405273 C73.40528051 412.91803961 70.23139873 413.55740443 63.78417969 413.58105469 C63.01163345 413.58762589 62.23908722 413.59419708 61.44313049 413.60096741 C58.88078723 413.62071413 56.31850261 413.63236603 53.75610352 413.64233398 C52.88157343 413.64640951 52.00704334 413.65048504 51.10601234 413.65468407 C46.47725281 413.67555069 41.84852298 413.68984982 37.21972656 413.69921875 C32.43786835 413.71028434 27.65647534 413.74468409 22.87478161 413.78439045 C19.19874708 413.81053198 15.52282379 413.81890838 11.84670448 413.82250023 C10.08404715 413.8273726 8.32139499 413.83900512 6.55882835 413.85753822 C4.0906015 413.88187784 1.62358348 413.88097453 -0.84472656 413.87402344 C-1.93513748 413.89323853 -1.93513748 413.89323853 -3.0475769 413.9128418 C-6.42022769 413.87825527 -8.5805124 413.4856917 -11.52934265 411.81217957 C-16.00007893 406.90740088 -17.09902453 401.94973094 -17.10468197 395.45867252 C-17.10934189 394.79283827 -17.11400181 394.12700403 -17.11880293 393.44099298 C-17.13071974 391.21786927 -17.12137081 388.99536048 -17.11204529 386.77223206 C-17.11621967 385.1590915 -17.12169776 383.54595387 -17.1283651 381.93282169 C-17.14282473 377.50600809 -17.13857337 373.07938059 -17.13119829 368.65255678 C-17.12647023 363.87604991 -17.13897324 359.09958352 -17.1492157 354.3230896 C-17.16641592 344.96800974 -17.16724119 335.612997 -17.16200279 326.25790543 C-17.15796227 318.65468187 -17.15940326 311.05147815 -17.16475105 303.44825554 C-17.16549947 302.36634751 -17.1662479 301.28443947 -17.167019 300.16974635 C-17.16855047 297.97189593 -17.17008881 295.77404552 -17.17163397 293.57619511 C-17.18536335 272.96316253 -17.17991816 252.3501679 -17.16844875 231.73713618 C-17.15851514 212.87685705 -17.1714585 194.01667601 -17.19538295 175.15641201 C-17.21976161 155.79224906 -17.2293849 136.42813181 -17.22273022 117.06395382 C-17.21923536 106.19178759 -17.22148772 95.31969682 -17.23898125 84.44754219 C-17.25368776 75.19267874 -17.25435891 65.93794389 -17.23691034 56.68308301 C-17.22838535 51.96106638 -17.22628737 47.23927962 -17.24156189 42.51727486 C-17.25537424 38.19377999 -17.25069046 33.87071267 -17.23132265 29.54724275 C-17.22755172 27.98406419 -17.23051607 26.42085167 -17.2409343 24.85770328 C-17.29051602 16.84830637 -17.32625744 10.24786619 -12.72436523 3.40405273 C-8.83644592 0.01768901 -4.9557533 -0.03136353 0 0 Z " fill="#4D4D4D" transform="translate(1901.724365234375,1337.595947265625)"/>
<path d="M0 0 C1.35158203 0.99966797 1.35158203 0.99966797 2.73046875 2.01953125 C29.19143316 22.60028135 42.9655485 52.31361016 47.27003354 85.05389863 C47.86841181 90.11629151 48.1485107 95.08390903 48.14717102 100.17912292 C48.15084771 100.9502872 48.1545244 101.72145147 48.1583125 102.51598436 C48.16923071 105.07210533 48.17317258 107.62818551 48.17700195 110.18432617 C48.18327505 112.02811305 48.18992259 113.87189869 48.19691467 115.71568298 C48.21783791 121.74143614 48.22829862 127.76718924 48.23828125 133.79296875 C48.24233169 135.87213974 48.2464487 137.95131061 48.25063133 140.03048134 C48.26964864 149.79081006 48.28389295 159.55113133 48.2922433 169.31147498 C48.30203565 180.569444 48.32842162 191.82721746 48.36874419 203.08511752 C48.39887939 211.79784887 48.41370927 220.51052401 48.41702431 229.22330648 C48.41937556 234.42358408 48.42834776 239.6236519 48.45348549 244.82387352 C48.47672905 249.71019257 48.48101445 254.596163 48.47072411 259.48252296 C48.47022791 261.27479842 48.47657288 263.06709086 48.49028015 264.85931396 C48.50795516 267.30723764 48.50091568 269.75390371 48.48774719 272.201828 C48.50420106 273.26365123 48.50420106 273.26365123 48.52098733 274.34692544 C48.45622359 279.33785183 47.09755175 282.13981375 44 286 C39.87691522 289.41598236 35.8147144 289.45025231 30.66479492 289.45166016 C29.83810806 289.46334229 29.0114212 289.47502441 28.15968323 289.48706055 C25.43315969 289.52058946 22.70718017 289.53137766 19.98046875 289.5390625 C18.07863679 289.55124799 16.17680674 289.56373416 14.27497864 289.57650757 C10.28963926 289.59897042 6.30449091 289.60853621 2.3190918 289.61083984 C-2.77561099 289.61611985 -7.86871446 289.6674373 -12.96298695 289.73035622 C-16.89139492 289.77131913 -20.81941974 289.78048277 -24.74802208 289.78095627 C-26.62546238 289.78632639 -28.50290752 289.80312975 -30.38013649 289.83180618 C-46.88528184 290.06290191 -46.88528184 290.06290191 -52.15112305 285.63818359 C-56.00188809 281.42650638 -56.12669443 277.730933 -56.13803101 272.16569519 C-56.14085229 271.46655528 -56.14367357 270.76741537 -56.14658034 270.0470894 C-56.15493011 267.69829258 -56.15626496 265.34954288 -56.15771484 263.00073242 C-56.16238313 261.31859199 -56.16752672 259.63645282 -56.17311096 257.95431519 C-56.18439804 254.32682094 -56.19282961 250.69933494 -56.19923019 247.07182884 C-56.20991752 241.3254682 -56.23016762 235.5791663 -56.25234985 229.83283997 C-56.31423885 213.49023147 -56.36817721 197.14762545 -56.40136719 180.80493164 C-56.419771 171.78254102 -56.44878436 162.76024797 -56.4893719 153.73792917 C-56.51035647 148.96773467 -56.52588687 144.19766273 -56.52817917 139.42741966 C-56.53034259 134.93019472 -56.54638278 130.43322432 -56.57256889 125.93607712 C-56.57970102 124.29554846 -56.58189285 122.65498875 -56.57846642 121.01444817 C-56.54782586 103.53739844 -58.79794064 86.42389644 -71.1875 73 C-82.3494935 62.80613859 -95.42491371 60.36823597 -110.0390625 60.75390625 C-123.19982682 61.57158687 -135.91020087 66.53399223 -144.96484375 76.328125 C-155.69975289 90.42155657 -157.45624831 106.11781277 -157.36889648 123.26147461 C-157.37137001 124.95807131 -157.37521399 126.65466647 -157.38031006 128.35125732 C-157.38858997 131.97755504 -157.38789071 135.60369539 -157.38012505 139.22999382 C-157.36846525 144.96659893 -157.38076598 150.70300475 -157.39674377 156.43959045 C-157.43279674 170.67622719 -157.43916334 184.91285784 -157.43664551 199.14953613 C-157.43493416 210.24025504 -157.44203294 221.33080939 -157.47662407 232.42148215 C-157.49340491 238.12261025 -157.49163665 243.82333615 -157.47580135 249.52446258 C-157.47000603 253.06695623 -157.48074007 256.60925879 -157.49604797 260.15171814 C-157.49977423 261.79240388 -157.49666603 263.43312171 -157.48617744 265.07377815 C-157.47279989 267.31573574 -157.48401938 269.55630064 -157.50120544 271.79820251 C-157.50099616 273.0515486 -157.50078688 274.3048947 -157.50057125 275.59622097 C-158.24554071 280.67344454 -160.76087607 283.69991445 -164.23280334 287.34265137 C-167.90325706 289.54098499 -171.11923218 289.56142707 -175.27514648 289.51757812 C-176.5053653 289.52809204 -176.5053653 289.52809204 -177.76043701 289.53881836 C-180.46433644 289.55638487 -183.16718416 289.54477962 -185.87109375 289.53125 C-187.75529684 289.53394557 -189.63949857 289.53782853 -191.5236969 289.54284668 C-195.47044127 289.54874012 -199.4168232 289.54018472 -203.36352539 289.52148438 C-208.41544467 289.49871058 -213.46651317 289.51180889 -218.51840115 289.53577423 C-222.40898512 289.55024975 -226.29936845 289.5456179 -230.18995857 289.53526306 C-232.05223759 289.53259981 -233.91453498 289.53585138 -235.77679253 289.54518127 C-238.38350312 289.5553741 -240.98884962 289.5398077 -243.59545898 289.51757812 C-244.36084488 289.52567505 -245.12623077 289.53377197 -245.91481018 289.54211426 C-251.09180217 289.46058568 -254.14970095 288.4785124 -258 285 C-261.41934351 278.8933702 -261.42412577 273.42664111 -261.38095093 266.53074646 C-261.3856309 265.38152067 -261.39031087 264.23229488 -261.39513266 263.04824406 C-261.40709072 259.20058344 -261.3976219 255.35327845 -261.38818359 251.50561523 C-261.3905987 248.74587266 -261.39748209 245.98614514 -261.40411377 243.22640991 C-261.41744272 236.51094774 -261.41457725 229.79558624 -261.40587585 223.08012014 C-261.39909697 217.6221872 -261.39818346 212.16428245 -261.4014473 206.70634651 C-261.401907 205.92915077 -261.40236669 205.15195503 -261.40284032 204.3512079 C-261.40379951 202.77229602 -261.40477215 201.19338414 -261.4057581 199.61447228 C-261.41430939 184.81481731 -261.40448167 170.01521812 -261.388357 155.21557231 C-261.3749514 142.51844281 -261.37728439 129.82139559 -261.39111328 117.12426758 C-261.40716915 102.37553095 -261.41348822 87.62684317 -261.40427649 72.87809902 C-261.40332085 71.30534526 -261.40237774 69.7325915 -261.4014473 68.15983772 C-261.40098447 67.38603192 -261.40052164 66.61222613 -261.40004479 65.81497167 C-261.39745512 60.36346178 -261.40182535 54.91198291 -261.40888596 49.46047783 C-261.41730111 42.81718056 -261.41502042 36.17398964 -261.39904372 29.53070455 C-261.39116157 26.14158212 -261.38806836 22.75263696 -261.39799118 19.36351585 C-261.40616688 15.68958936 -261.3959324 12.01616429 -261.38095093 8.3422699 C-261.38764309 7.27116531 -261.39433526 6.20006073 -261.40123022 5.09649843 C-261.35806087 -0.3468953 -261.12962593 -4.33052515 -258 -9 C-253.0853678 -13.54603479 -249.25494683 -14.15064648 -242.77807617 -14.16113281 C-242.04600449 -14.16609772 -241.3139328 -14.17106262 -240.55967712 -14.17617798 C-238.13743143 -14.19078433 -235.71525125 -14.19759935 -233.29296875 -14.203125 C-231.60769143 -14.2088781 -229.92241413 -14.21463581 -228.23713684 -14.22039795 C-224.70227758 -14.23090386 -221.16744104 -14.23674908 -217.63256836 -14.24023438 C-213.10986699 -14.24571558 -208.58746721 -14.26973722 -204.06486034 -14.29820633 C-200.5826582 -14.31685942 -197.10052829 -14.32203975 -193.61828041 -14.32357025 C-191.95136175 -14.32659173 -190.28444421 -14.3346032 -188.61757469 -14.34775543 C-186.28152111 -14.36487071 -183.94619881 -14.36292253 -181.61010742 -14.35644531 C-180.58355042 -14.37026749 -180.58355042 -14.37026749 -179.53625488 -14.3843689 C-174.97129278 -14.34485469 -171.86964083 -13.40821686 -168 -11 C-163.3234701 -5.09156541 -163.35026106 0.59565612 -163.25 7.9375 C-163.22035156 9.00291016 -163.19070312 10.06832031 -163.16015625 11.16601562 C-163.08989431 13.77741787 -163.03698252 16.38795004 -163 19 C-162.25556641 18.22837524 -162.25556641 18.22837524 -161.49609375 17.44116211 C-157.2325749 13.08915704 -152.94332612 9.12215648 -148 5.5625 C-147.36118896 5.10077393 -146.72237793 4.63904785 -146.06420898 4.16333008 C-105.00469795 -24.93069472 -41.87979025 -31.33743641 0 0 Z " fill="#4D4D4D" transform="translate(3632,1462)"/>
<path d="M0 0 C1.92442649 1.80727668 3.80669696 3.64625888 5.6875 5.5 C6.42871094 6.22832031 7.16992188 6.95664063 7.93359375 7.70703125 C24.88297732 25.5154479 32.84066143 52.79613634 32.83467102 76.93850708 C32.83834771 77.74965245 32.8420244 78.56079782 32.8458125 79.39652336 C32.85675916 82.09394536 32.86067757 84.79132874 32.86450195 87.48876953 C32.87077298 89.43092977 32.87742034 91.37308882 32.88441467 93.31524658 C32.90536574 99.67109353 32.91580253 106.02694049 32.92578125 112.3828125 C32.92983091 114.57434985 32.93394789 116.76588707 32.93813133 118.95742416 C32.95715624 129.24635305 32.97139794 139.53527484 32.9797433 149.82421792 C32.98953292 161.69628798 33.01590867 173.56817246 33.05624419 185.44017708 C33.0863769 194.62422187 33.10120912 203.80821332 33.10452431 212.99230659 C33.10687623 218.47540473 33.11585683 223.95830395 33.14098549 229.44134903 C33.16422408 234.59440167 33.16851641 239.74712374 33.15822411 244.90021515 C33.15772776 246.79085514 33.16407718 248.6815112 33.17778015 250.57210159 C33.19544475 253.15361891 33.18842039 255.73394249 33.17524719 258.31546021 C33.19170106 259.43667084 33.19170106 259.43667084 33.20848733 260.58053219 C33.14560709 265.68608949 31.8833333 268.55743856 28.6875 272.5 C24.66548197 275.78974041 20.88230947 275.93535424 15.87133789 275.90405273 C14.71427086 275.91434761 14.71427086 275.91434761 13.53382874 275.92485046 C10.99241555 275.94310175 8.4516207 275.93928343 5.91015625 275.93359375 C4.1380544 275.93815644 2.36595432 275.94346227 0.59385681 275.94947815 C-3.11743363 275.95840601 -6.82850884 275.95598994 -10.53979492 275.94604492 C-15.28902984 275.93455689 -20.03752106 275.95476559 -24.78665829 275.98396206 C-28.4456095 276.00233393 -32.10438283 276.00202962 -35.76336861 275.99632454 C-37.51401373 275.99617144 -39.26467099 276.00220653 -41.01527214 276.01461601 C-43.46629975 276.0295429 -45.91595776 276.01883758 -48.36694336 276.00170898 C-49.08557556 276.01137695 -49.80420776 276.02104492 -50.5446167 276.03100586 C-55.58410798 275.95749297 -58.41074464 274.62730353 -62.3125 271.5 C-66.33000459 266.95139672 -65.8643435 261.45871508 -66 255.6875 C-66.03416016 254.70845703 -66.06832031 253.72941406 -66.10351562 252.72070312 C-66.18569858 250.31391655 -66.25494433 247.90748055 -66.3125 245.5 C-67.07691406 246.32242187 -67.84132813 247.14484375 -68.62890625 247.9921875 C-87.50778723 267.85761333 -112.41413983 280.38152404 -140.09448242 281.67700195 C-141.45221316 281.70314541 -142.81006886 281.72331121 -144.16796875 281.73828125 C-144.9032077 281.74812042 -145.63844666 281.75795959 -146.39596558 281.76809692 C-177.48700474 282.09854338 -177.48700474 282.09854338 -192.3125 277.5 C-193.11381348 277.25330566 -193.91512695 277.00661133 -194.74072266 276.75244141 C-210.00157018 271.89224187 -223.11260015 264.98462395 -235.3125 254.5 C-236.30443359 253.72462891 -236.30443359 253.72462891 -237.31640625 252.93359375 C-252.63524425 240.58568191 -261.95401064 222.86978287 -264.3125 203.5 C-265.82886105 180.17109142 -263.73791986 157.97993543 -248.13671875 139.50390625 C-247.53472656 138.84261719 -246.93273438 138.18132812 -246.3125 137.5 C-245.65894531 136.76652344 -245.00539063 136.03304688 -244.33203125 135.27734375 C-238.39081561 128.96818397 -231.61262898 124.09423578 -224.3125 119.5 C-223.43343994 118.943125 -223.43343994 118.943125 -222.53662109 118.375 C-191.01737589 98.74257476 -153.88956245 92.76245794 -117.8125 87.3125 C-116.97681488 87.18584961 -116.14112976 87.05919922 -115.28012085 86.92871094 C-100.00799249 84.62776308 -84.70548516 82.78839964 -69.3125 81.5 C-70.64741349 58.11199119 -70.64741349 58.11199119 -82.94921875 39.01171875 C-90.9803822 33.10593912 -103.54339755 31.55736731 -113.3125 32.5 C-114.69308594 32.62181641 -114.69308594 32.62181641 -116.1015625 32.74609375 C-126.52958139 34.05296433 -137.52473686 38.35299903 -144.15625 46.8671875 C-144.7028125 47.69476562 -145.249375 48.52234375 -145.8125 49.375 C-146.410625 50.25027344 -147.00875 51.12554688 -147.625 52.02734375 C-148.181875 52.84332031 -148.73875 53.65929688 -149.3125 54.5 C-152.56241652 59.15241025 -155.84946699 61.79934816 -161.3125 63.5 C-164.96792603 63.88095093 -164.96792603 63.88095093 -168.91259766 63.88818359 C-169.99936043 63.89606903 -169.99936043 63.89606903 -171.108078 63.90411377 C-173.48113137 63.91721996 -175.85350342 63.90861146 -178.2265625 63.8984375 C-179.88609953 63.9004605 -181.54563568 63.90337383 -183.20516968 63.90713501 C-186.67332471 63.91154525 -190.14124711 63.90516775 -193.609375 63.89111328 C-198.04916133 63.87399525 -202.48840458 63.88388715 -206.92817116 63.90183067 C-210.35116658 63.91268094 -213.7740336 63.90921695 -217.19703293 63.9014473 C-218.83406006 63.89945011 -220.47109895 63.90188763 -222.10811234 63.90888596 C-224.39611897 63.91652409 -226.68324984 63.90486535 -228.97119141 63.88818359 C-230.27134186 63.88579681 -231.57149231 63.88341003 -232.91104126 63.88095093 C-237.76402352 63.33743468 -241.19712523 61.23844972 -244.3125 57.5 C-247.30760197 48.51469408 -244.5738071 38.56102064 -240.8359375 30.1953125 C-226.25176821 1.89270086 -197.88860434 -16.03129517 -168.36865234 -25.859375 C-115.80278024 -42.23705826 -42.43094903 -38.57237415 0 0 Z M-73.71435547 140.24682617 C-74.65399139 140.41087448 -75.59362732 140.57492279 -76.56173706 140.74394226 C-80.94403134 141.51560162 -85.32558341 142.29135535 -89.70654297 143.07055664 C-91.9943998 143.47604228 -94.28279964 143.87847816 -96.57177734 144.27758789 C-133.86655142 149.4366694 -133.86655142 149.4366694 -164.09375 169.65234375 C-167.66923778 175.07287491 -169.3903357 180.99745276 -168.3125 187.5 C-165.29335344 197.61027028 -160.43770083 203.33425645 -151.3125 208.5 C-137.83231405 214.73680639 -121.4365309 216.00882764 -107.08203125 211.67578125 C-91.21626297 204.94010247 -80.17372213 194.17478304 -73.375 178.36328125 C-68.59362866 165.47818862 -68.16481192 153.02166388 -68.3125 139.5 C-70.13467944 139.5 -71.92399484 139.93399335 -73.71435547 140.24682617 Z " fill="#4E4E4E" transform="translate(1759.3125,1475.5)"/>
<path d="M0 0 C35.1741904 -0.70828375 69.19942036 2.77203676 100.37548828 20.06201172 C101.36033203 20.60470703 102.34517578 21.14740234 103.35986328 21.70654297 C124.47391127 34.24682291 140.2720078 55.4539488 146.87253368 79.02196968 C150.38413568 93.26543355 150.8191813 107.94049908 150.77954102 122.52661133 C150.78526391 124.4706918 150.79223546 126.41476893 150.80033875 128.35884094 C150.81805281 133.56449559 150.81714603 138.76997977 150.81139636 143.97565532 C150.80827916 148.33790666 150.81442331 152.70012642 150.82043511 157.06237322 C150.83440079 167.34540194 150.83297984 177.62834739 150.8215332 187.91137695 C150.80999999 198.50625306 150.82423265 209.10087756 150.85092968 219.69572061 C150.87306843 228.8248427 150.87972993 237.95388564 150.87385327 247.08303267 C150.87048536 252.52231977 150.87289069 257.96144477 150.89010429 263.40070915 C150.90554709 268.50061673 150.90164762 273.60014823 150.88279915 278.70004082 C150.879109 280.56971667 150.88223411 282.4394203 150.89268494 284.30907059 C150.90586438 286.86146574 150.89437616 289.41260932 150.87669373 291.96495056 C150.88629873 292.70355676 150.89590374 293.44216296 150.90579981 294.20315117 C150.82039877 300.19608249 148.66522685 303.66719559 144.60690308 307.91175842 C141.36148924 309.58470958 138.24009802 309.48823698 134.67285156 309.46606445 C133.51600357 309.47635933 133.51600357 309.47635933 132.33578491 309.48686218 C129.78893566 309.50514751 127.24270153 309.50128978 124.69580078 309.49560547 C122.92226969 309.50016703 121.14874037 309.50547253 119.37521362 309.51148987 C115.65794699 309.5204248 111.94089514 309.51799422 108.22363281 309.50805664 C103.46652225 309.49657683 98.71015507 309.51676107 93.95314217 309.54597378 C90.2898998 309.56434765 86.62683509 309.56404079 82.9635582 309.55833626 C81.210122 309.55818313 79.4566737 309.56422026 77.7032814 309.57662773 C75.24735608 309.59155566 72.7927975 309.58084794 70.33691406 309.5637207 C69.61671082 309.57338867 68.89650757 309.58305664 68.15447998 309.59301758 C63.11016585 309.51959173 60.28076306 308.19332244 56.37548828 305.06201172 C52.35798369 300.51340844 52.82364478 295.02072679 52.68798828 289.24951172 C52.65382813 288.27046875 52.61966797 287.29142578 52.58447266 286.28271484 C52.5022897 283.87592827 52.43304395 281.46949227 52.37548828 279.06201172 C51.61107422 279.88443359 50.84666016 280.70685547 50.05908203 281.55419922 C31.37231649 301.21420298 6.01827583 314.06722402 -21.45410156 315.22314453 C-22.83114503 315.24302888 -24.20828773 315.25675163 -25.58544922 315.26513672 C-26.33428375 315.27083679 -27.08311829 315.27653687 -27.85464478 315.28240967 C-29.43628553 315.29180917 -31.01794543 315.29837342 -32.59960938 315.30224609 C-34.95854436 315.31184502 -37.31656575 315.34287086 -39.67529297 315.37451172 C-70.60781352 315.59052009 -99.57801082 304.63260915 -122.28076172 283.44091797 C-140.04871821 265.40644213 -147.06868013 245.69799672 -146.91552734 220.74975586 C-146.63037973 202.07654771 -140.5316446 184.88052612 -127.62451172 171.06201172 C-126.94904297 170.30791016 -126.27357422 169.55380859 -125.57763672 168.77685547 C-93.66356029 134.82447123 -42.42887967 127.38349161 1.18798828 120.81201172 C2.01472046 120.68713379 2.84145264 120.56225586 3.6932373 120.43359375 C18.86914229 118.15686785 34.08119665 116.34215067 49.37548828 115.06201172 C48.04057479 91.67400291 48.04057479 91.67400291 35.73876953 72.57373047 C27.36394758 66.41523884 14.49859257 65.17543411 4.37548828 66.06201172 C3.42158203 66.14322266 2.46767578 66.22443359 1.48486328 66.30810547 C-6.24143495 67.26893999 -12.09751931 69.88561122 -18.62451172 74.06201172 C-19.53201172 74.63951172 -20.43951172 75.21701172 -21.37451172 75.81201172 C-25.02679314 79.46429314 -27.72053277 83.8068759 -30.62451172 88.06201172 C-33.87442824 92.71442197 -37.16147871 95.36135988 -42.62451172 97.06201172 C-46.27993774 97.44296265 -46.27993774 97.44296265 -50.22460938 97.45019531 C-51.31137215 97.45808075 -51.31137215 97.45808075 -52.42008972 97.46612549 C-54.79314309 97.47923168 -57.16551513 97.47062318 -59.53857422 97.46044922 C-61.19811124 97.46247222 -62.8576474 97.46538555 -64.5171814 97.46914673 C-67.98533643 97.47355697 -71.45325883 97.46717947 -74.92138672 97.453125 C-79.36117305 97.43600697 -83.8004163 97.44589886 -88.24018288 97.46384239 C-91.6631783 97.47469266 -95.08604532 97.47122867 -98.50904465 97.46345901 C-100.14607178 97.46146183 -101.78311067 97.46389935 -103.42012405 97.47089767 C-105.70813069 97.47853581 -107.99526156 97.46687707 -110.28320312 97.45019531 C-111.58335358 97.44780853 -112.88350403 97.44542175 -114.22305298 97.44296265 C-119.07603524 96.8994464 -122.50913695 94.80046144 -125.62451172 91.06201172 C-128.61961369 82.0767058 -125.88581881 72.12303236 -122.14794922 63.75732422 C-107.45334304 35.24039443 -79.70429198 17.61344548 -50.05517578 7.7956543 C-33.87596123 2.73996724 -16.9185823 0.39975069 0 0 Z M44.37524414 173.90063477 C42.77107887 174.17673836 42.77107887 174.17673836 41.13450623 174.4584198 C36.17304553 175.31978821 31.2127985 176.18793889 26.25317383 177.05981445 C23.65409957 177.51605332 21.0541368 177.96570387 18.45336914 178.41235352 C-7.06466801 182.6150488 -7.06466801 182.6150488 -31.12451172 191.81201172 C-32.11584106 192.31571289 -32.11584106 192.31571289 -33.12719727 192.82958984 C-40.21091464 196.62809229 -45.40016903 201.66913111 -48.62451172 209.12451172 C-51.10213037 217.33465979 -49.34392092 223.58431448 -45.62451172 231.06201172 C-40.41698552 239.5483507 -30.00049661 243.95197348 -20.75463867 246.59692383 C-4.25444354 250.19954523 12.4186842 245.87201535 26.37548828 237.06201172 C40.9525743 226.77087956 46.96552081 210.20728885 50.06298828 193.31201172 C50.77788777 186.62055251 50.44887715 179.78117067 50.37548828 173.06201172 C48.3631755 173.06201172 46.35054034 173.56059308 44.37524414 173.90063477 Z " fill="#4E4E4E" transform="translate(2372.62451171875,1441.93798828125)"/>
<path d="M0 0 C1.62989868 0.00531738 1.62989868 0.00531738 3.29272461 0.01074219 C12.83112113 0.2052164 21.04238145 1.99740989 29.875 5.5 C30.68710937 5.81066406 31.49921875 6.12132812 32.3359375 6.44140625 C46.93566127 12.87567186 56.99216489 26.14270243 62.875 40.5 C66.97580213 53.55422011 67.22106049 71.22093621 60.875 83.5 C55.07201013 94.2941625 47.04108806 102.7152385 37.89453125 110.73828125 C31.56077072 116.42253861 25.68067155 122.62176766 19.69360352 128.66552734 C17.42796696 130.95093385 15.15054088 133.22445912 12.875 135.5 C11.78482516 136.60123483 10.6950089 137.70282471 9.60546875 138.8046875 C-1.35136637 149.86142363 -1.35136637 149.86142363 -7.01953125 154.68359375 C-15.43552825 161.94414774 -23.40866536 169.66888454 -31.17578125 177.61328125 C-33.32526656 179.76834385 -35.5664093 181.77058685 -37.875 183.75390625 C-42.75515473 187.97875069 -47.27361343 192.53954237 -51.8125 197.125 C-53.05483398 198.37410156 -53.05483398 198.37410156 -54.32226562 199.6484375 C-55.90255726 201.23758585 -57.48188391 202.82769461 -59.06005859 204.41894531 C-61.40859799 206.78581098 -63.76488171 209.14468847 -66.125 211.5 C-64.81269914 215.34952733 -63.28853199 217.69748891 -60.38671875 220.53125 C-59.64873047 221.25957031 -58.91074219 221.98789063 -58.15039062 222.73828125 C-57.37888672 223.48464844 -56.60738281 224.23101563 -55.8125 225 C-55.05259766 225.74636719 -54.29269531 226.49273438 -53.50976562 227.26171875 C-52.02955811 228.71491987 -50.54655168 230.1652764 -49.06054688 231.61254883 C-46.72752743 233.88759592 -44.42571746 236.19230009 -42.125 238.5 C-40.58626821 240.02767693 -39.04716097 241.55497572 -37.5078125 243.08203125 C-35.7551396 244.82545173 -34.00253744 246.56894335 -32.25 248.3125 C-31.37730469 249.17681641 -30.50460937 250.04113281 -29.60546875 250.93164062 C-25.20067952 255.3198705 -20.96894882 259.76535201 -16.92138672 264.4831543 C-13.34247972 268.50127753 -9.45854121 272.22702027 -5.625 276 C-0.4588101 281.08457552 4.59232727 286.18491777 9.31542969 291.68652344 C12.02128488 294.83290609 14.85320134 297.86126006 17.66723633 300.91088867 C20.67415918 304.17608736 23.62752448 307.48213918 26.5625 310.8125 C29.23479438 313.79918196 31.94734504 316.5293644 35 319.125 C47.48018866 329.85401594 55.7450438 344.91361566 57.03027344 361.50439453 C58.06186301 380.05169297 53.30228261 395.76787291 41.15625 410.15625 C29.57987379 422.04978721 14.44080341 429.57558774 -2.19433594 429.93139648 C-23.88085526 429.97656168 -38.36838088 423.6650737 -54.125 408.5 C-54.79789063 407.85546875 -55.47078125 407.2109375 -56.1640625 406.546875 C-59.3971175 403.38260841 -62.48833142 400.19133602 -65.125 396.5 C-65.125 395.84 -65.125 395.18 -65.125 394.5 C-65.99547974 394.11739014 -65.99547974 394.11739014 -66.88354492 393.72705078 C-69.35765718 392.37263534 -71.00221002 390.86587734 -72.98828125 388.8671875 C-73.71080078 388.14273437 -74.43332031 387.41828125 -75.17773438 386.671875 C-75.92345703 385.91390625 -76.66917969 385.1559375 -77.4375 384.375 C-78.17162109 383.64023438 -78.90574219 382.90546875 -79.66210938 382.1484375 C-83.09132384 378.691838 -86.43042761 375.19997623 -89.60546875 371.5078125 C-93.54743279 366.93606054 -97.82270594 362.73010792 -102.125 358.5 C-110.69063834 350.07808043 -110.69063834 350.07808043 -114.59375 345.53125 C-118.68702757 340.76833486 -123.15146937 336.40285874 -127.625 332 C-132.73507419 326.97065368 -137.69862492 321.91931383 -142.36914062 316.47851562 C-145.61685716 312.81896407 -149.13555661 309.42702043 -152.625 306 C-156.74824574 301.95051536 -160.825117 297.91641052 -164.59375 293.53125 C-168.53687392 288.94821339 -172.81610398 284.73659911 -177.125 280.5 C-182.12281526 275.5860407 -186.95012025 270.63183678 -191.51660156 265.31347656 C-193.86560714 262.66496207 -196.42083644 260.30039229 -199 257.875 C-211.23237089 245.93726902 -219.07571965 231.2443547 -219.41748047 213.94848633 C-219.54458772 195.62489148 -215.61742463 180.77488627 -202.7421875 167.09765625 C-198.71343849 163.09897253 -194.53805541 159.27188552 -190.3359375 155.45703125 C-186.63772604 152.0833208 -183.12552943 148.53824661 -179.63671875 144.94921875 C-177.61687282 142.97963337 -175.57166219 141.14381359 -173.43359375 139.30859375 C-168.54608535 135.06978374 -164.03630332 130.48330813 -159.5 125.875 C-150.39519933 116.62704208 -150.39519933 116.62704208 -146.73828125 113.640625 C-144.5122018 111.81716978 -142.75377046 110.08568844 -140.9375 107.875 C-134.63048907 100.49356464 -127.65692995 93.68326959 -120.28515625 87.37109375 C-113.31001061 81.32933107 -106.56932979 75.03175351 -100.10522461 68.44726562 C-98.28058508 66.65299551 -96.40643053 64.98829543 -94.45703125 63.33203125 C-89.7642671 59.2544275 -85.41934718 54.86825468 -81.0625 50.4375 C-76.37717967 45.67310254 -71.69611696 41.04008333 -66.57055664 36.74975586 C-64.82040787 35.2366649 -63.33879153 33.60202536 -61.875 31.8125 C-50.94072554 19.08014485 -39.53816266 8.4001903 -23.125 3.5 C-22.29838867 3.23687012 -21.47177734 2.97374023 -20.62011719 2.70263672 C-13.67026743 0.61504428 -7.24023477 -0.04291179 0 0 Z " fill="#03959F" transform="translate(695.125,1321.5)"/>
<path d="M0 0 C6.49027654 1.35792523 12.76652177 3.05899923 19.08984375 5.046875 C20.03324112 5.34055969 20.97663849 5.63424438 21.94862366 5.93682861 C23.93837644 6.55706512 25.92758094 7.179063 27.91625977 7.80273438 C30.89667796 8.73720085 33.87882597 9.66595914 36.86132812 10.59375 C42.58035892 12.37665964 48.29259198 14.18023839 54 16 C54.87141632 16.27758148 55.74283264 16.55516296 56.64065552 16.84115601 C59.08602905 17.62440332 61.52794758 18.41747985 63.96875 19.21484375 C64.67503036 19.44109436 65.38131073 19.66734497 66.10899353 19.90045166 C80.46220679 24.64489024 92.24937089 33.07926177 99.71875 46.37890625 C104.30190301 55.75480768 106.20879731 64.40010495 106.375 74.75 C106.43107422 76.00490234 106.43107422 76.00490234 106.48828125 77.28515625 C106.59730334 85.46181311 104.28112279 92.73214905 101.81872559 100.42474365 C100.60370101 104.24653671 99.44073812 108.08391472 98.27081299 111.91970825 C96.58796883 117.4292083 94.88612157 122.93284833 93.1875 128.4375 C92.50706067 130.64515123 91.82672172 132.8528334 91.14648438 135.06054688 C89.78609943 139.47534458 88.42509737 143.88995138 87.0637207 148.30444336 C84.95314003 155.14983312 82.84764842 161.9967842 80.7421875 168.84375 C78.15532287 177.25465271 75.55670657 185.66161175 72.9375 194.0625 C70.05657377 203.31873031 67.20609993 212.58388231 64.375 221.85546875 C64.05521179 222.90253998 63.73542358 223.94961121 63.40594482 225.02841187 C62.08373891 229.35805017 60.76159664 233.68770748 59.44055176 238.0177002 C55.94260627 249.47904433 52.42172566 260.92567211 48.6875 272.3125 C45.63633326 281.65020629 43.01736678 291.08708236 40.4375 300.5625 C35.94543485 317.05863853 30.92034969 333.36510752 25.75537109 349.66186523 C22.54856335 359.79069963 19.40266629 369.9286847 16.4296875 380.12890625 C15.85596106 382.08327703 15.28215062 384.03762315 14.70825195 385.99194336 C13.89534898 388.76264425 13.08819615 391.53423951 12.30160522 394.31253052 C6.48389893 414.85832716 -2.82386649 432.91054605 -22 444 C-37.69294538 452.56192087 -55.08912293 454.4613516 -72.27172852 449.83007812 C-88.04843944 445.17280396 -100.87739362 435.46432045 -109 421 C-110.92592845 417.07604951 -112.55205433 413.12325154 -114 409 C-114.2475 408.29746094 -114.495 407.59492187 -114.75 406.87109375 C-117.73872912 396.26525639 -116.95772572 384.13214228 -114.0078125 373.6328125 C-113.79016739 372.83341248 -113.57252228 372.03401245 -113.34828186 371.21038818 C-110.0034318 359.13833237 -106.1849601 347.20133568 -102.4375 335.25 C-101.62186011 332.63907233 -100.80766176 330.02769617 -99.99365234 327.41625977 C-98.77698856 323.5137636 -97.56015489 319.61132214 -96.34136963 315.70948792 C-93.24427736 305.79308889 -90.17380366 295.8688352 -87.125 285.9375 C-86.66769354 284.44944743 -86.21033587 282.96141059 -85.75292969 281.47338867 C-83.81314524 275.16183198 -81.87507937 268.84974754 -79.93682861 262.53771973 C-77.24012425 253.75625065 -74.54226558 244.9751371 -71.84290314 236.19448471 C-71.40674656 234.7756951 -70.97062481 233.35689479 -70.53453827 231.93808365 C-64.65750332 212.81751219 -58.73650776 193.71164312 -52.75 174.625 C-46.80793261 155.67021384 -40.92202293 136.70910016 -35.67724609 117.546875 C-32.27891308 105.16974489 -28.59282922 92.88672732 -24.81549072 80.62054443 C-24.1941806 78.60032891 -23.57575741 76.57922301 -22.96038818 74.55718994 C-22.08412499 71.68241087 -21.19597174 68.81155898 -20.3046875 65.94140625 C-20.04647217 65.08804184 -19.78825684 64.23467743 -19.5222168 63.35545349 C-17.84046721 57.99882199 -15.69467509 53.13080433 -13.05844116 48.17216492 C-11.6283071 45.2372006 -11.15920623 42.4781825 -10.75 39.25 C-9.44317209 30.61010809 -6.8568348 22.33707864 -4.3125 14 C-4.10210083 13.30990845 -3.89170166 12.61981689 -3.67492676 11.90881348 C-2.46100774 7.9357513 -1.23526588 3.96648561 0 0 Z " fill="#04959E" transform="translate(904,1299)"/>
<path d="M0 0 C1.10791901 -0.0098568 1.10791901 -0.0098568 2.23822021 -0.01991272 C4.68331 -0.0396262 7.12833833 -0.05130555 9.57348633 -0.0612793 C10.41025721 -0.06535482 11.24702808 -0.06943035 12.10915565 -0.07362938 C16.54037859 -0.09448441 20.97157064 -0.1087871 25.40283203 -0.11816406 C29.96802317 -0.12921166 34.53272462 -0.16359385 39.09774303 -0.20333576 C42.61777112 -0.22955145 46.13768356 -0.2378604 49.65780067 -0.24144554 C51.33982961 -0.24630076 53.02185374 -0.2578843 54.70378685 -0.27648354 C72.46753938 -0.46066849 72.46753938 -0.46066849 77.71801758 4.17700195 C82.17973845 10.24635665 82.28510802 16.44333718 82.21922302 23.72854614 C82.22752462 25.44754114 82.22752462 25.44754114 82.23599392 27.20126331 C82.24958108 31.0321028 82.23464085 34.86228863 82.21972656 38.69311523 C82.22130304 41.4431569 82.2288586 44.19317499 82.23609924 46.94320679 C82.25001165 53.6311601 82.24249083 60.31892424 82.22742366 67.0068685 C82.21054178 74.79751325 82.21377648 82.58811116 82.21751774 90.37876855 C82.22339245 104.27916188 82.20923898 118.17946454 82.18457031 132.07983398 C82.16064142 145.56489458 82.15357014 159.04983409 82.1640625 172.53491211 C82.17547289 187.22616236 82.17740099 201.91735665 82.1629644 216.60860622 C82.16143859 218.17516573 82.15991823 219.74172524 82.1584034 221.30828476 C82.15764558 222.07903146 82.15688777 222.84977816 82.15610699 223.64388082 C82.15136583 229.07335745 82.15321434 234.50280907 82.1574688 239.93228531 C82.16239635 246.54811736 82.15640691 253.16383496 82.1365745 259.77964081 C82.12670619 263.15463001 82.12320195 266.52929946 82.12946701 269.90431976 C82.13540753 273.56287553 82.1229375 277.22091577 82.10569763 280.87942505 C82.11170768 281.94595657 82.11771772 283.01248808 82.12390989 284.11133873 C82.06245146 291.2647681 81.09700658 295.66032292 76.03759766 301.01255798 C72.10605233 303.57601763 69.14842167 303.88031038 64.60473633 303.80810547 C63.41818954 303.81883842 63.41818954 303.81883842 62.20767212 303.82978821 C59.60635711 303.84662561 57.00677771 303.82730312 54.40551758 303.8059082 C52.59000507 303.80673736 50.77449263 303.80919853 48.95898438 303.81321716 C45.15935594 303.81607176 41.36031807 303.80140726 37.56079102 303.77392578 C32.69830895 303.73984344 27.83688258 303.74586435 22.97434998 303.76458836 C19.22700249 303.77517335 15.47989926 303.76620694 11.73257446 303.75120354 C9.94008103 303.74603226 8.14756199 303.7464907 6.35507202 303.75274849 C3.84659261 303.75821894 1.33960777 303.73776864 -1.16870117 303.71044922 C-2.27234512 303.72023804 -2.27234512 303.72023804 -3.39828491 303.73022461 C-8.4920343 303.63622656 -11.48770898 302.5802145 -15.28198242 299.17700195 C-18.70296551 293.07180189 -18.70610302 287.60281548 -18.66293335 280.70774841 C-18.66761332 279.55852262 -18.67229329 278.40929683 -18.67711508 277.22524601 C-18.68907314 273.3775854 -18.67960432 269.5302804 -18.67016602 265.68261719 C-18.67258112 262.92287461 -18.67946451 260.1631471 -18.68609619 257.40341187 C-18.69942514 250.68794969 -18.69655967 243.97258819 -18.68785827 237.25712209 C-18.68107939 231.79918915 -18.68016588 226.34128441 -18.68342972 220.88334846 C-18.68388942 220.10615272 -18.68434912 219.32895698 -18.68482275 218.52820985 C-18.68578193 216.94929797 -18.68675457 215.3703861 -18.68774052 213.79147423 C-18.69629181 198.99181926 -18.68646409 184.19222008 -18.67033942 169.39257426 C-18.65693382 156.69544476 -18.65926682 143.99839754 -18.6730957 131.30126953 C-18.68915157 116.5525329 -18.69547064 101.80384513 -18.68625891 87.05510098 C-18.68530327 85.48234722 -18.68436016 83.90959345 -18.68342972 82.33683968 C-18.68296689 81.56303388 -18.68250406 80.78922808 -18.68202721 79.99197362 C-18.67943754 74.54046374 -18.68380777 69.08898486 -18.69086838 63.63747978 C-18.69928353 56.99418252 -18.69700284 50.35099159 -18.68102615 43.7077065 C-18.67314399 40.31858407 -18.67005078 36.92963891 -18.6799736 33.54051781 C-18.68814931 29.86659131 -18.67791482 26.19316625 -18.66293335 22.51927185 C-18.66962551 21.44816727 -18.67631768 20.37706268 -18.68321264 19.27350038 C-18.64004329 13.83010665 -18.41160835 9.8464768 -15.28198242 5.17700195 C-10.3524901 0.61722156 -6.49563716 0.02507152 0 0 Z " fill="#4E4E4E" transform="translate(3194.281982421875,1447.822998046875)"/>
<path d="M0 0 C6.49027654 1.35792523 12.76652177 3.05899923 19.08984375 5.046875 C20.03324112 5.34055969 20.97663849 5.63424438 21.94862366 5.93682861 C23.93837644 6.55706512 25.92758094 7.179063 27.91625977 7.80273438 C30.89667796 8.73720085 33.87882597 9.66595914 36.86132812 10.59375 C42.58035892 12.37665964 48.29259198 14.18023839 54 16 C54.87141632 16.27758148 55.74283264 16.55516296 56.64065552 16.84115601 C59.08602905 17.62440332 61.52794758 18.41747985 63.96875 19.21484375 C65.02817055 19.55421967 65.02817055 19.55421967 66.10899353 19.90045166 C80.46220679 24.64489024 92.24937089 33.07926177 99.71875 46.37890625 C104.30190301 55.75480768 106.20879731 64.40010495 106.375 74.75 C106.43107422 76.00490234 106.43107422 76.00490234 106.48828125 77.28515625 C106.59730334 85.46181311 104.28112279 92.73214905 101.81872559 100.42474365 C100.60370101 104.24653671 99.44073812 108.08391472 98.27081299 111.91970825 C96.58796883 117.4292083 94.88612157 122.93284833 93.1875 128.4375 C92.16656144 131.74988386 91.14592563 135.06236074 90.1255188 138.37490845 C89.44817687 140.57196857 88.76986019 142.76872843 88.09054565 144.96517944 C86.29788144 150.7650386 84.52383396 156.5697968 82.77587891 162.38330078 C82.41351639 163.58124771 82.05115387 164.77919464 81.67781067 166.01344299 C80.98130083 168.31766107 80.28976256 170.62338927 79.60380554 172.93077087 C79.29151505 173.96045486 78.97922455 174.99013885 78.6574707 176.05102539 C78.38489944 176.960746 78.11232819 177.87046661 77.83149719 178.80775452 C77 181 77 181 75 183 C76.39099838 176.36237179 78.13714884 169.91941658 80.125 163.4375 C80.54072266 162.06754883 80.54072266 162.06754883 80.96484375 160.66992188 C81.64026409 158.44569283 82.31868967 156.22243047 83 154 C78.05211218 152.25621315 73.16766971 150.73174622 68.02880859 149.67138672 C42.08677488 144.28318573 21.27150073 130.6246959 6 109 C4.91138672 107.46859375 4.91138672 107.46859375 3.80078125 105.90625 C-7.63100848 88.66057864 -10.01371459 69.21885095 -11 49 C-13.18326108 53.27113698 -15.31326082 57.50202887 -17 62 C-18.21730284 58.34809147 -17.64600214 57.46329838 -16.1875 54 C-15.83042969 53.13375 -15.47335937 52.2675 -15.10546875 51.375 C-14 49 -14 49 -12 46 C-11.59073028 43.90585347 -11.24894615 41.79841276 -10.9375 39.6875 C-8.71406613 26.17218666 -4.06493348 13.05265565 0 0 Z " fill="#FBC03C" transform="translate(904,1299)"/>
<path d="M0 0 C1.15246719 -0.01270432 1.15246719 -0.01270432 2.32821655 -0.02566528 C4.85456136 -0.04896162 7.38029442 -0.05005917 9.90673828 -0.04882812 C11.67262004 -0.05593455 13.4384995 -0.06363425 15.20437622 -0.07189941 C18.90129009 -0.08532758 22.59799048 -0.08692067 26.29492188 -0.08105469 C31.0182768 -0.07516243 35.74060248 -0.10573781 40.46375847 -0.14617157 C44.109929 -0.17209928 47.75585343 -0.17492137 51.40210342 -0.17127991 C53.14273793 -0.17296665 54.88338436 -0.18256608 56.62392807 -0.20042419 C72.98242095 -0.34979271 72.98242095 -0.34979271 78.79202271 3.9564209 C82.10051301 7.6525087 82.36244032 10.86921741 82.40844727 15.74560547 C82.42443466 17.02728607 82.44042206 18.30896667 82.45689392 19.62948608 C82.46327083 21.02577313 82.46866351 22.42206496 82.47314453 23.81835938 C82.48211571 25.25558565 82.49123765 26.69281099 82.50050354 28.1300354 C82.51697859 31.1410753 82.52469092 34.1520042 82.52758789 37.16308594 C82.53297063 41.01235254 82.57065049 44.86056917 82.61633205 48.70953941 C82.64614557 51.67792526 82.65331235 54.64605953 82.65431404 57.61458206 C82.65850784 59.03312617 82.67090858 60.4516716 82.69183159 61.8700676 C82.86105676 74.33389728 82.86105676 74.33389728 79.87963867 78.21142578 C74.87554454 82.19024581 70.54270214 82.71608927 64.28588867 82.69458008 C63.51451065 82.69969101 62.74313263 82.70480194 61.94837952 82.71006775 C59.40707569 82.72392929 56.8660441 82.72300964 54.32470703 82.72070312 C52.5526062 82.72459185 50.78050629 82.72892688 49.00840759 82.73368835 C45.29715959 82.74114309 41.58600673 82.74086463 37.87475586 82.7355957 C33.12564992 82.72980101 28.37693397 82.74673561 23.62789249 82.76994038 C19.968966 82.78469226 16.31013314 82.78554746 12.65118217 82.78243065 C10.9005398 82.78294309 9.14989209 82.78816642 7.39927864 82.79824257 C4.94846577 82.81061849 2.49840875 82.80380883 0.04760742 82.79223633 C-0.67102478 82.79988007 -1.38965698 82.8075238 -2.13006592 82.81539917 C-8.12207862 82.75305463 -11.95322653 81.31682704 -16.24060059 77.13487244 C-18.25595765 73.83345795 -18.40463631 71.83257248 -18.41552734 67.98071289 C-18.42813599 66.69910782 -18.44074463 65.41750275 -18.45373535 64.09706116 C-18.44657453 62.70597787 -18.43837029 61.31489961 -18.42919922 59.92382812 C-18.43189614 58.48802935 -18.43578023 57.05223236 -18.4407959 55.61643982 C-18.44668357 52.61122197 -18.43815363 49.60648067 -18.41943359 46.60131836 C-18.39666414 42.75998948 -18.40975762 38.91977984 -18.43372345 35.07849216 C-18.44821936 32.114351 -18.44355794 29.15047251 -18.43321228 26.18632317 C-18.43055435 24.77061771 -18.43378179 23.35488798 -18.44313049 21.93921089 C-18.45335432 19.95565407 -18.43499335 17.97201305 -18.41552734 15.98852539 C-18.41234497 14.86221207 -18.4091626 13.73589874 -18.40588379 12.57545471 C-17.76307371 8.58201064 -16.50025201 6.50467311 -13.89794922 3.41992188 C-9.38264142 0.39141969 -5.30259151 -0.02176688 0 0 Z " fill="#4E4E4E" transform="translate(3193.89794921875,1323.580078125)"/>
<path d="M0 0 C-0.87568545 0.3977248 -0.87568545 0.3977248 -1.76906151 0.80348444 C-5.9623342 3.05245546 -8.69394847 5.82700272 -11 10 C-12.02626216 15.22779152 -11.94071457 20.39138352 -11.87974548 25.6920166 C-11.88693378 27.29935966 -11.8971913 28.90669142 -11.91024405 30.51399755 C-11.93717875 34.92009899 -11.92068251 39.32512442 -11.89700234 43.73120499 C-11.87908585 48.48645584 -11.90157503 53.24153689 -11.91912842 57.99676514 C-11.94401065 66.23189859 -11.94335796 74.46671157 -11.92530632 82.70185852 C-11.89924391 94.60839378 -11.91177782 106.514643 -11.93369765 118.42117518 C-11.96821527 137.73915226 -11.97156787 157.05700383 -11.95532227 176.375 C-11.93960899 195.13935462 -11.9385729 213.9036155 -11.95727539 232.66796875 C-11.95842332 233.82482125 -11.95957125 234.98167374 -11.96075397 236.17358238 C-11.96660341 241.97723721 -11.9727414 247.7808917 -11.97902286 253.58454609 C-12.03075125 301.72305767 -12.03190208 349.8614762 -12 398 C-12.33 398 -12.66 398 -13 398 C-13.06862483 348.52881897 -13.12150778 299.05764274 -13.15319599 249.58642351 C-13.15694823 243.7495915 -13.16083119 237.9127596 -13.16479492 232.07592773 C-13.16558185 230.91389014 -13.16636878 229.75185255 -13.16717956 228.55460169 C-13.18024341 209.72420666 -13.20390263 190.89383903 -13.23145839 172.06346027 C-13.25948536 152.7503959 -13.27617052 133.43734591 -13.28226548 114.12426203 C-13.28638755 102.20129288 -13.29941978 90.27840116 -13.3237494 78.35545584 C-13.33957317 70.1861146 -13.34440799 62.01681356 -13.34050413 53.8474581 C-13.33857734 49.12993978 -13.34158868 44.41255703 -13.35761642 39.69506264 C-13.37217389 35.37892567 -13.37297951 31.06301594 -13.36269668 26.74686869 C-13.36142507 25.18285551 -13.3652658 23.61882836 -13.37464955 22.05484281 C-13.38664288 19.93308071 -13.38022875 17.81214504 -13.36914349 15.69039631 C-13.37028265 14.51060524 -13.37142181 13.33081418 -13.37259549 12.11527187 C-12.8143712 7.4479571 -10.9395947 4.91486852 -7.625 1.6875 C-4.74524277 -0.16377251 -3.34856435 -0.38269307 0 0 Z " fill="#666666" transform="translate(1104,1344)"/>
<path d="M0 0 C0.70269516 -0.00014603 1.40539032 -0.00029205 2.12937927 -0.0004425 C4.45062351 0.00025382 6.77178737 0.00803313 9.09301758 0.01586914 C10.70298722 0.01773431 12.31295744 0.01915775 13.92292786 0.02015686 C18.1594703 0.02397421 22.39597843 0.03379785 26.63250732 0.04486084 C30.9559279 0.05509175 35.27935401 0.05965808 39.6027832 0.06469727 C48.08522082 0.0754208 56.56763055 0.09248786 65.05004883 0.11352539 C65.05004883 0.44352539 65.05004883 0.77352539 65.05004883 1.11352539 C64.17165848 1.11939163 63.29326813 1.12525787 62.38825989 1.13130188 C54.10444899 1.18923999 45.8209074 1.26132316 37.53735828 1.3492403 C33.27883107 1.39394056 29.02039946 1.43319734 24.76171875 1.45996094 C20.65073307 1.48599752 16.54011531 1.52640215 12.42935753 1.57671165 C10.86215483 1.59337803 9.2948885 1.60489376 7.72760963 1.6111393 C5.52976673 1.6207832 3.33286453 1.64884393 1.13525391 1.68115234 C-0.11495041 1.6922554 -1.36515472 1.70335846 -2.65324402 1.71479797 C-6.97721387 2.23776991 -9.58646174 3.75003596 -12.63745117 6.80102539 C-13.07057617 7.23415039 -13.50370117 7.66727539 -13.94995117 8.11352539 C-14.60995117 8.11352539 -15.26995117 8.11352539 -15.94995117 8.11352539 C-14.55410325 4.74022624 -13.02629506 3.07119878 -9.94995117 1.11352539 C-6.44351579 -0.0552864 -3.70093649 -0.00645888 0 0 Z " fill="#9B9B9B" transform="translate(2633.949951171875,1447.886474609375)"/>
<path d="M0 0 C0.66 0.33 1.32 0.66 2 1 C-8.56 11.56 -19.12 22.12 -30 33 C-30.66 32.67 -31.32 32.34 -32 32 C-12.76708402 11.24272138 -12.76708402 11.24272138 -3.6640625 3.4453125 C-2.39833536 2.34597202 -1.1854566 1.1854566 0 0 Z " fill="#8BCED2" transform="translate(579,1405)"/>
<path d="M0 0 C0.66 0.33 1.32 0.66 2 1 C-4.93 7.93 -11.86 14.86 -19 22 C-19.66 21.67 -20.32 21.34 -21 21 C-18.63094737 18.43194695 -16.25370494 15.87161234 -13.875 13.3125 C-13.20984375 12.59126953 -12.5446875 11.87003906 -11.859375 11.12695312 C-8.10587615 7.09746171 -4.32282641 3.41382085 0 0 Z " fill="#989898" transform="translate(2070,1450)"/>
<path d="M0 0 C0.66 0.33 1.32 0.66 2 1 C1.154375 1.7734375 0.30875 2.546875 -0.5625 3.34375 C-6.8412458 9.10304787 -13.05454982 14.89289105 -19 21 C-19.66 20.67 -20.32 20.34 -21 20 C-14.81113732 12.47909734 -7.88217346 5.74402066 0 0 Z " fill="#9A9A9A" transform="translate(1530,1598)"/>
<path d="M0 0 C0 3 0 3 -1.28515625 4.62573242 C-2.16494141 5.4819519 -2.16494141 5.4819519 -3.0625 6.35546875 C-3.69414062 6.97744141 -4.32578125 7.59941406 -4.9765625 8.24023438 C-5.64429687 8.88283203 -6.31203125 9.52542969 -7 10.1875 C-8.00160156 11.16879883 -8.00160156 11.16879883 -9.0234375 12.16992188 C-10.67578441 13.78686135 -12.33471601 15.39640491 -14 17 C-14.66 16.67 -15.32 16.34 -16 16 C-10.96679794 10.22494276 -5.96260189 4.82082706 0 0 Z " fill="#808080" transform="translate(2256,1603)"/>
<path d="M0 0 C0.66 0.33 1.32 0.66 2 1 C-0.78358481 3.84137242 -3.57815727 6.67168155 -6.375 9.5 C-7.1690625 10.31082031 -7.963125 11.12164063 -8.78125 11.95703125 C-9.92207031 13.10751953 -9.92207031 13.10751953 -11.0859375 14.28125 C-11.7876709 14.99345703 -12.4894043 15.70566406 -13.21240234 16.43945312 C-15 18 -15 18 -17 18 C-15.61917102 14.85243351 -14.05200845 12.86116028 -11.5234375 10.546875 C-10.853125 9.928125 -10.1828125 9.309375 -9.4921875 8.671875 C-8.79351563 8.03765625 -8.09484375 7.4034375 -7.375 6.75 C-6.66859375 6.1003125 -5.9621875 5.450625 -5.234375 4.78125 C-3.49427822 3.18224215 -1.74943338 1.58877761 0 0 Z " fill="#7C7C7C" transform="translate(2278,1473)"/>
<path d="M0 0 C-0.57234375 0.23460937 -1.1446875 0.46921875 -1.734375 0.7109375 C-4.51684301 2.29406585 -6.17070214 4.1991525 -8.25 6.625 C-8.95640625 7.44226562 -9.6628125 8.25953125 -10.390625 9.1015625 C-10.92171875 9.72804688 -11.4528125 10.35453125 -12 11 C-12.33 10.34 -12.66 9.68 -13 9 C-10.29566298 3.29084406 -6.62302694 -0.75691736 0 0 Z " fill="#8D8D8D" transform="translate(1104,1344)"/>
<path d="M0 0 C0.5775 0.226875 1.155 0.45375 1.75 0.6875 C0.6053125 1.3371875 0.6053125 1.3371875 -0.5625 2 C-3.21286253 3.52502358 -3.21286253 3.52502358 -4.9375 5.375 C-5.370625 5.808125 -5.80375 6.24125 -6.25 6.6875 C-6.91 6.6875 -7.57 6.6875 -8.25 6.6875 C-6.65594781 2.8352072 -4.57967475 -0.63606594 0 0 Z " fill="#8F8F8F" transform="translate(2626.25,1449.3125)"/>
<path d="M0 0 C0.99 0.33 1.98 0.66 3 1 C1.8803014 2.00593243 0.7540588 3.0045849 -0.375 4 C-1.00148438 4.556875 -1.62796875 5.11375 -2.2734375 5.6875 C-4 7 -4 7 -6 7 C-4.61990379 3.66476748 -3.15049348 1.81392049 0 0 Z " fill="#737373" transform="translate(3379,1449)"/>
</svg>
